<svg width="34" height="34" viewBox="0 0 34 34" fill="none" xmlns="http://www.w3.org/2000/svg">
<rect x="1" y="1" width="32" height="32" stroke="#333333" stroke-width="0.8"/>
<path d="M6.032 27.72H24.224L25.544 26.064C25.544 26.064 25.68 26.168 25.952 26.376C26.224 26.584 26.544 26.84 26.912 27.144C27.296 27.448 27.648 27.736 27.968 28.008C27.904 28.264 27.688 28.392 27.32 28.392H6.224L6.032 27.72ZM6.56 17.352H23.864L25.16 15.792C25.16 15.792 25.288 15.896 25.544 16.104C25.816 16.296 26.136 16.536 26.504 16.824C26.872 17.112 27.208 17.392 27.512 17.664C27.448 17.92 27.232 18.048 26.864 18.048H6.752L6.56 17.352ZM13.64 6.72L16.4 6.984C16.384 7.144 16.32 7.28 16.208 7.392C16.096 7.488 15.904 7.56 15.632 7.608V15.432H13.64V6.72ZM18.224 6.72L21.032 6.984C21.016 7.144 20.944 7.28 20.816 7.392C20.704 7.504 20.512 7.576 20.24 7.608V15.432H18.224V6.72ZM9.872 19.752V18.792L12.296 19.752H21.776L22.832 18.552L24.968 20.16C24.904 20.256 24.808 20.336 24.68 20.4C24.552 20.464 24.36 20.52 24.104 20.568V23.904C24.104 23.952 23.936 24.048 23.6 24.192C23.264 24.32 22.808 24.384 22.232 24.384H21.848V20.448H12.032V24.216C12.032 24.28 11.872 24.384 11.552 24.528C11.248 24.656 10.816 24.72 10.256 24.72H9.872V19.752ZM10.04 12.096H24.08V12.792H10.04V12.096ZM10.04 15.072H24.08V15.744H10.04V15.072ZM10.904 23.04H23.168V23.736H10.904V23.04ZM12.416 24.024C13.296 24.232 13.968 24.496 14.432 24.816C14.912 25.12 15.24 25.44 15.416 25.776C15.592 26.112 15.648 26.432 15.584 26.736C15.52 27.04 15.376 27.28 15.152 27.456C14.928 27.648 14.656 27.744 14.336 27.744C14.032 27.744 13.72 27.608 13.4 27.336C13.384 26.776 13.248 26.208 12.992 25.632C12.736 25.04 12.464 24.552 12.176 24.168L12.416 24.024ZM19.352 23.976L22.448 24.864C22.4 24.992 22.304 25.104 22.16 25.2C22.016 25.28 21.816 25.312 21.56 25.296C21.176 25.696 20.704 26.136 20.144 26.616C19.6 27.096 19.048 27.528 18.488 27.912H18.08C18.32 27.368 18.56 26.72 18.8 25.968C19.04 25.216 19.224 24.552 19.352 23.976ZM8.96 9.192V8.256L11.216 9.192H24.152V9.888H11.024V16.128C11.024 16.192 10.936 16.28 10.76 16.392C10.584 16.488 10.36 16.584 10.088 16.68C9.816 16.76 9.536 16.8 9.248 16.8H8.96V9.192ZM22.952 9.192H22.712L23.792 8.04L26.072 9.768C26.008 9.864 25.888 9.96 25.712 10.056C25.536 10.152 25.328 10.224 25.088 10.272V15.792C25.088 15.84 24.984 15.912 24.776 16.008C24.584 16.104 24.352 16.2 24.08 16.296C23.808 16.376 23.552 16.416 23.312 16.416H22.952V9.192Z" fill="#333333"/>
</svg>
