<svg width="71" height="17" viewBox="0 0 71 17" fill="none" xmlns="http://www.w3.org/2000/svg">
<path d="M14.606 3.552C14.654 3.648 14.666 3.738 14.642 3.822C14.618 3.906 14.582 3.984 14.534 4.056C14.51 4.116 14.492 4.158 14.48 4.182C14.204 4.206 13.976 4.26 13.796 4.344C13.616 4.416 13.394 4.5 13.13 4.596C13.046 5.208 12.944 5.814 12.824 6.414C12.716 7.014 12.488 7.5 12.14 7.872C11.804 7.884 11.456 7.902 11.096 7.926C10.748 7.938 10.394 7.956 10.034 7.98C9.17 8.028 8.306 8.07 7.442 8.106C6.59 8.142 5.804 8.142 5.084 8.106C4.928 8.298 4.754 8.406 4.562 8.43C4.37 8.454 4.178 8.43 3.986 8.358C3.758 8.262 3.548 8.124 3.356 7.944C3.164 7.752 3.026 7.584 2.942 7.44C2.858 7.308 2.816 7.128 2.816 6.9C2.828 6.66 2.852 6.408 2.888 6.144C2.9 5.916 2.912 5.688 2.924 5.46C2.936 5.232 2.918 5.028 2.87 4.848C2.798 4.632 2.696 4.47 2.564 4.362C2.432 4.254 2.294 4.17 2.15 4.11C2.006 4.05 1.88 3.978 1.772 3.894C1.664 3.81 1.598 3.678 1.574 3.498C2.198 3.342 2.822 3.216 3.446 3.12C4.07 3.024 4.736 2.946 5.444 2.886C5.372 2.514 5.27 2.202 5.138 1.95C5.006 1.698 4.898 1.392 4.814 1.032C5.126 0.899999 5.444 0.905999 5.768 1.05C6.104 1.182 6.374 1.392 6.578 1.68C6.794 1.968 6.878 2.286 6.83 2.634C6.926 2.706 7.07 2.748 7.262 2.76C7.454 2.772 7.652 2.772 7.856 2.76C8.072 2.736 8.246 2.712 8.378 2.688C8.402 2.268 8.354 1.92 8.234 1.644C8.114 1.356 7.97 1.092 7.802 0.852C7.922 0.671999 8.066 0.569999 8.234 0.545999C8.402 0.521999 8.582 0.545999 8.774 0.618C9.038 0.714 9.284 0.876 9.512 1.104C9.752 1.32 9.92 1.524 10.016 1.716C10.016 1.8 10.004 1.878 9.98 1.95C9.956 2.01 9.926 2.076 9.89 2.148C9.854 2.232 9.824 2.316 9.8 2.4C9.776 2.484 9.782 2.58 9.818 2.688C9.878 2.676 9.956 2.676 10.052 2.688C10.16 2.7 10.268 2.712 10.376 2.724C10.664 2.748 10.958 2.76 11.258 2.76C11.558 2.76 11.744 2.658 11.816 2.454C12.116 2.586 12.44 2.694 12.788 2.778C13.136 2.862 13.472 2.958 13.796 3.066C14.132 3.174 14.402 3.336 14.606 3.552ZM15.974 15.378C15.758 15.57 15.518 15.666 15.254 15.666C15.002 15.678 14.732 15.666 14.444 15.63H14.426C13.766 15.546 13.052 15.486 12.284 15.45C11.516 15.426 10.742 15.408 9.962 15.396C9.182 15.396 8.438 15.39 7.73 15.378C7.13 15.366 6.494 15.396 5.822 15.468C5.162 15.552 4.514 15.666 3.878 15.81C3.242 15.966 2.672 16.152 2.168 16.368C1.976 16.212 1.754 16.08 1.502 15.972C1.25 15.876 1.016 15.762 0.8 15.63C0.812 15.498 0.788 15.384 0.728 15.288C0.668 15.204 0.602 15.132 0.53 15.072C0.47 15 0.416 14.928 0.368 14.856C0.32 14.784 0.314 14.694 0.35 14.586C0.926 14.694 1.556 14.73 2.24 14.694C2.924 14.646 3.584 14.592 4.22 14.532C4.34 14.52 4.46 14.508 4.58 14.496C4.712 14.484 4.838 14.472 4.958 14.46C4.85 14.076 4.67 13.758 4.418 13.506C4.166 13.242 3.932 12.966 3.716 12.678C3.776 12.666 3.83 12.666 3.878 12.678C3.926 12.678 3.974 12.684 4.022 12.696C4.07 12.708 4.112 12.714 4.148 12.714C4.196 12.714 4.25 12.702 4.31 12.678L4.238 12.552C4.382 12.264 4.4 11.976 4.292 11.688C4.196 11.4 4.046 11.148 3.842 10.932C3.638 10.704 3.464 10.548 3.32 10.464C3.356 10.344 3.416 10.272 3.5 10.248C3.584 10.224 3.668 10.212 3.752 10.212C3.824 10.212 3.89 10.206 3.95 10.194C4.022 10.182 4.076 10.146 4.112 10.086C4.496 10.098 4.886 10.092 5.282 10.068C5.678 10.044 6.086 10.008 6.506 9.96C6.974 9.924 7.454 9.888 7.946 9.852C8.45 9.816 8.966 9.81 9.494 9.834C9.59 9.822 9.656 9.786 9.692 9.726C9.74 9.666 9.782 9.6 9.818 9.528C10.166 9.576 10.568 9.648 11.024 9.744C11.48 9.828 11.87 9.972 12.194 10.176C12.362 10.284 12.5 10.41 12.608 10.554C12.716 10.698 12.776 10.872 12.788 11.076C12.8 11.22 12.74 11.28 12.608 11.256C12.38 11.22 12.182 11.244 12.014 11.328C11.858 11.4 11.72 11.502 11.6 11.634C11.48 11.778 11.378 11.94 11.294 12.12C11.21 12.288 11.126 12.45 11.042 12.606C11.078 12.702 11.138 12.78 11.222 12.84C11.318 12.888 11.408 12.942 11.492 13.002C11.576 13.062 11.624 13.158 11.636 13.29C11.528 13.482 11.384 13.65 11.204 13.794C11.036 13.926 10.898 14.088 10.79 14.28C11.054 14.304 11.324 14.322 11.6 14.334C11.876 14.334 12.164 14.334 12.464 14.334C12.56 14.334 12.614 14.292 12.626 14.208C12.638 14.112 12.674 14.052 12.734 14.028C13.118 14.088 13.52 14.172 13.94 14.28C14.36 14.376 14.75 14.514 15.11 14.694C15.482 14.862 15.77 15.09 15.974 15.378ZM13.13 9.096C12.614 9.192 11.99 9.27 11.258 9.33C10.538 9.39 9.776 9.438 8.972 9.474C8.168 9.51 7.376 9.546 6.596 9.582C5.816 9.606 5.114 9.648 4.49 9.708C4.442 9.708 4.388 9.714 4.328 9.726C4.268 9.738 4.214 9.756 4.166 9.78C4.094 9.792 4.022 9.804 3.95 9.816C3.89 9.828 3.836 9.834 3.788 9.834C3.488 9.798 3.2 9.678 2.924 9.474C2.66 9.27 2.426 9.126 2.222 9.042C2.354 8.946 2.522 8.886 2.726 8.862C2.93 8.826 3.128 8.802 3.32 8.79C4.028 8.742 4.838 8.682 5.75 8.61C6.662 8.526 7.562 8.466 8.45 8.43C8.594 8.43 8.738 8.424 8.882 8.412C9.038 8.4 9.188 8.388 9.332 8.376C9.848 8.352 10.34 8.34 10.808 8.34C11.276 8.328 11.708 8.376 12.104 8.484C12.5 8.592 12.842 8.796 13.13 9.096ZM9.746 10.698C8.978 10.722 8.222 10.746 7.478 10.77C6.746 10.794 6.032 10.872 5.336 11.004C5.432 11.112 5.48 11.25 5.48 11.418C5.48 11.574 5.468 11.724 5.444 11.868C5.444 11.976 5.438 12.072 5.426 12.156C5.426 12.24 5.438 12.312 5.462 12.372C5.822 12.372 6.182 12.36 6.542 12.336C6.902 12.312 7.25 12.288 7.586 12.264C7.946 12.228 8.282 12.204 8.594 12.192C8.906 12.168 9.182 12.162 9.422 12.174C9.626 12.03 9.746 11.826 9.782 11.562C9.818 11.298 9.806 11.01 9.746 10.698ZM11.438 3.678C11.282 3.642 11.108 3.624 10.916 3.624C10.724 3.624 10.526 3.624 10.322 3.624C10.226 3.624 10.13 3.624 10.034 3.624C9.938 3.624 9.842 3.624 9.746 3.624C9.758 3.816 9.752 3.996 9.728 4.164C9.704 4.332 9.686 4.488 9.674 4.632C9.662 4.692 9.65 4.752 9.638 4.812C9.626 4.872 9.62 4.926 9.62 4.974C9.872 5.058 10.142 5.136 10.43 5.208C10.718 5.268 10.904 5.418 10.988 5.658C10.808 5.754 10.574 5.802 10.286 5.802C10.01 5.802 9.764 5.832 9.548 5.892C9.5 6.048 9.47 6.198 9.458 6.342C9.446 6.486 9.44 6.618 9.44 6.738C9.44 6.798 9.434 6.858 9.422 6.918C9.422 6.966 9.422 7.014 9.422 7.062C9.47 7.062 9.536 7.062 9.62 7.062C9.824 7.05 10.046 7.044 10.286 7.044C10.538 7.044 10.814 7.074 11.114 7.134C11.138 6.954 11.162 6.768 11.186 6.576C11.222 6.384 11.252 6.192 11.276 6C11.348 5.568 11.408 5.148 11.456 4.74C11.504 4.332 11.498 3.978 11.438 3.678ZM9.692 13.218C9.596 13.218 9.494 13.218 9.386 13.218C9.278 13.218 9.17 13.218 9.062 13.218C8.45 13.218 7.832 13.224 7.208 13.236C6.584 13.236 6.068 13.272 5.66 13.344C5.756 13.536 5.882 13.698 6.038 13.83C6.194 13.962 6.308 14.13 6.38 14.334C6.536 14.286 6.734 14.268 6.974 14.28C7.226 14.292 7.478 14.31 7.73 14.334C7.97 14.358 8.198 14.376 8.414 14.388C8.63 14.4 8.792 14.382 8.9 14.334C9.14 14.226 9.314 14.052 9.422 13.812C9.542 13.572 9.632 13.374 9.692 13.218ZM8.522 4.11C8.498 4.05 8.474 3.972 8.45 3.876C8.426 3.768 8.384 3.702 8.324 3.678C8.048 3.666 7.784 3.672 7.532 3.696C7.292 3.72 7.058 3.756 6.83 3.804C6.83 3.912 6.83 4.02 6.83 4.128C6.83 4.236 6.83 4.338 6.83 4.434C6.83 4.53 6.83 4.626 6.83 4.722C6.83 4.806 6.83 4.89 6.83 4.974H8.324C8.348 4.746 8.366 4.572 8.378 4.452C8.39 4.32 8.438 4.206 8.522 4.11ZM5.606 5.1C5.594 5.028 5.588 4.962 5.588 4.902C5.588 4.83 5.588 4.758 5.588 4.686C5.588 4.554 5.582 4.422 5.57 4.29C5.558 4.146 5.522 4.002 5.462 3.858C5.198 3.918 4.922 3.96 4.634 3.984C4.358 3.996 4.118 4.02 3.914 4.056C3.95 4.248 3.992 4.446 4.04 4.65C4.088 4.842 4.112 5.034 4.112 5.226C4.388 5.226 4.64 5.208 4.868 5.172C5.108 5.136 5.354 5.112 5.606 5.1ZM8.324 7.062C8.312 6.966 8.306 6.876 8.306 6.792C8.306 6.696 8.306 6.606 8.306 6.522C8.318 6.402 8.318 6.288 8.306 6.18C8.306 6.072 8.288 5.958 8.252 5.838C8.084 5.862 7.904 5.88 7.712 5.892C7.532 5.892 7.346 5.892 7.154 5.892C7.106 5.892 7.058 5.892 7.01 5.892C6.974 5.892 6.938 5.892 6.902 5.892C6.842 6.108 6.806 6.33 6.794 6.558C6.782 6.786 6.77 6.978 6.758 7.134C7.106 7.134 7.412 7.134 7.676 7.134C7.952 7.122 8.168 7.098 8.324 7.062ZM5.66 7.188C5.648 7.116 5.642 7.044 5.642 6.972C5.654 6.888 5.66 6.804 5.66 6.72C5.672 6.588 5.678 6.462 5.678 6.342C5.678 6.21 5.654 6.102 5.606 6.018C5.534 6.018 5.456 6.018 5.372 6.018C5.288 6.018 5.198 6.018 5.102 6.018C4.934 6.03 4.766 6.036 4.598 6.036C4.442 6.036 4.298 6.012 4.166 5.964C4.154 6.108 4.154 6.24 4.166 6.36C4.178 6.48 4.19 6.594 4.202 6.702C4.226 6.798 4.238 6.9 4.238 7.008C4.25 7.104 4.25 7.206 4.238 7.314C4.538 7.302 4.784 7.29 4.976 7.278C5.168 7.266 5.396 7.236 5.66 7.188ZM34.532 15.072C34.508 15.24 34.418 15.372 34.262 15.468C34.106 15.564 33.938 15.642 33.758 15.702C33.578 15.774 33.422 15.858 33.29 15.954C33.17 15.87 33.062 15.834 32.966 15.846C32.87 15.87 32.804 15.828 32.768 15.72C32.6 15.78 32.444 15.786 32.3 15.738C32.156 15.702 32.018 15.654 31.886 15.594C31.826 15.57 31.766 15.546 31.706 15.522C31.646 15.498 31.586 15.48 31.526 15.468C31.538 15.432 31.556 15.402 31.58 15.378C31.616 15.354 31.634 15.342 31.634 15.342C31.502 15.318 31.406 15.252 31.346 15.144C31.298 15.048 31.202 14.994 31.058 14.982C30.998 14.682 30.896 14.436 30.752 14.244C30.608 14.04 30.446 13.86 30.266 13.704C30.158 13.728 30.068 13.776 29.996 13.848C29.936 13.908 29.93 13.998 29.978 14.118C29.57 14.394 29.198 14.676 28.862 14.964C28.538 15.24 28.112 15.51 27.584 15.774C27.56 15.786 27.548 15.822 27.548 15.882C27.548 15.954 27.518 16.02 27.458 16.08C27.026 16.104 26.69 16.008 26.45 15.792C26.222 15.588 26.018 15.342 25.838 15.054C25.754 14.922 25.676 14.796 25.604 14.676C25.532 14.556 25.448 14.436 25.352 14.316C25.628 14.328 25.85 14.352 26.018 14.388C26.186 14.424 26.342 14.502 26.486 14.622C26.57 14.334 26.612 14.082 26.612 13.866C26.624 13.638 26.624 13.404 26.612 13.164C26.612 13.02 26.606 12.87 26.594 12.714C26.594 12.558 26.6 12.378 26.612 12.174C26.168 12.45 25.718 12.816 25.262 13.272C24.818 13.728 24.35 14.112 23.858 14.424C23.738 14.4 23.66 14.388 23.624 14.388C23.588 14.388 23.498 14.382 23.354 14.37C23.354 14.598 23.312 14.85 23.228 15.126C23.144 15.414 23.072 15.69 23.012 15.954C22.736 16.05 22.472 16.05 22.22 15.954C21.968 15.858 21.722 15.708 21.482 15.504C21.242 15.3 21.014 15.084 20.798 14.856C20.738 14.796 20.696 14.754 20.672 14.73C20.468 14.526 20.288 14.268 20.132 13.956C19.976 13.644 19.832 13.356 19.7 13.092C19.7 13.092 19.79 13.14 19.97 13.236C20.15 13.332 20.318 13.416 20.474 13.488C20.69 13.596 20.912 13.698 21.14 13.794C21.38 13.878 21.602 13.926 21.806 13.938C21.986 13.566 22.088 13.194 22.112 12.822C22.148 12.45 22.16 12.078 22.148 11.706C22.148 11.61 22.148 11.514 22.148 11.418C22.148 11.322 22.148 11.226 22.148 11.13C22.16 10.866 22.154 10.566 22.13 10.23C22.106 9.882 22.076 9.492 22.04 9.06C21.824 9.348 21.572 9.606 21.284 9.834C21.008 10.05 20.738 10.284 20.474 10.536C20.222 10.776 20.018 11.076 19.862 11.436C19.778 11.496 19.712 11.526 19.664 11.526C19.628 11.514 19.58 11.526 19.52 11.562C19.52 11.574 19.526 11.598 19.538 11.634C19.562 11.658 19.574 11.688 19.574 11.724C19.574 11.748 19.538 11.772 19.466 11.796C19.334 11.832 19.184 11.946 19.016 12.138C18.848 12.318 18.716 12.51 18.62 12.714C18.584 12.702 18.566 12.66 18.566 12.588C18.566 12.54 18.566 12.504 18.566 12.48C18.482 12.588 18.38 12.69 18.26 12.786C18.14 12.87 17.996 12.924 17.828 12.948C17.744 12.96 17.612 12.924 17.432 12.84C17.252 12.744 17.15 12.582 17.126 12.354C18.014 11.586 18.848 10.77 19.628 9.906C20.42 9.03 21.11 8.052 21.698 6.972C21.506 6.948 21.314 6.96 21.122 7.008C20.93 7.044 20.75 7.092 20.582 7.152C20.438 7.188 20.306 7.224 20.186 7.26C20.066 7.284 19.958 7.29 19.862 7.278C19.85 7.302 19.826 7.332 19.79 7.368C19.754 7.392 19.724 7.422 19.7 7.458C19.688 7.482 19.688 7.524 19.7 7.584C19.448 7.584 19.202 7.566 18.962 7.53C18.938 7.434 18.884 7.356 18.8 7.296C18.728 7.236 18.65 7.176 18.566 7.116C18.47 7.044 18.38 6.972 18.296 6.9C18.224 6.828 18.2 6.732 18.224 6.612C18.188 6.612 18.152 6.6 18.116 6.576C18.104 6.552 18.086 6.54 18.062 6.54C18.038 6.528 17.996 6.534 17.936 6.558C17.924 6.498 17.906 6.45 17.882 6.414C17.87 6.366 17.858 6.324 17.846 6.288C17.822 6.228 17.798 6.168 17.774 6.108C17.762 6.036 17.774 5.94 17.81 5.82C17.882 5.82 17.948 5.814 18.008 5.802C18.068 5.79 18.098 5.754 18.098 5.694C18.374 5.814 18.662 5.892 18.962 5.928C19.262 5.964 19.568 5.976 19.88 5.964C20.24 5.94 20.606 5.892 20.978 5.82C21.35 5.736 21.722 5.652 22.094 5.568C22.154 5.088 22.142 4.68 22.058 4.344C21.986 3.996 21.848 3.672 21.644 3.372C21.344 3.564 21.032 3.69 20.708 3.75C20.384 3.81 20.048 3.888 19.7 3.984C19.664 3.852 19.556 3.774 19.376 3.75C19.196 3.714 19.076 3.708 19.016 3.732C19.016 3.732 19.016 3.708 19.016 3.66C19.016 3.612 18.998 3.576 18.962 3.552C18.986 3.54 19.022 3.516 19.07 3.48C19.19 3.384 19.328 3.288 19.484 3.192C19.652 3.096 19.82 3.072 19.988 3.12C20.012 3.108 20.024 3.072 20.024 3.012C20 2.952 20.006 2.91 20.042 2.886C20.186 2.826 20.396 2.736 20.672 2.616C20.948 2.484 21.236 2.352 21.536 2.22C21.836 2.088 22.1 1.968 22.328 1.86C22.556 1.74 22.706 1.656 22.778 1.608C22.766 1.56 22.748 1.518 22.724 1.482C22.7 1.446 22.67 1.41 22.634 1.374C22.586 1.338 22.544 1.296 22.508 1.248C22.484 1.188 22.478 1.104 22.49 0.995999C22.754 0.947999 23.012 0.935999 23.264 0.959999C23.516 0.983999 23.756 1.014 23.984 1.05C24.068 1.062 24.146 1.074 24.218 1.086C24.29 1.086 24.362 1.092 24.434 1.104C24.482 1.212 24.554 1.296 24.65 1.356C24.746 1.404 24.848 1.446 24.956 1.482C24.944 1.554 24.944 1.614 24.956 1.662C24.968 1.698 24.98 1.74 24.992 1.788C24.992 1.836 24.998 1.884 25.01 1.932C25.022 1.968 25.022 2.022 25.01 2.094C24.854 2.25 24.644 2.358 24.38 2.418C24.128 2.466 23.864 2.514 23.588 2.562C23.312 2.598 23.06 2.682 22.832 2.814C23.108 3.126 23.306 3.48 23.426 3.876C23.546 4.272 23.558 4.716 23.462 5.208C23.738 5.184 24.02 5.232 24.308 5.352C24.608 5.46 24.86 5.592 25.064 5.748C25.268 5.616 25.454 5.466 25.622 5.298C25.79 5.13 25.946 4.95 26.09 4.758C26.15 4.686 26.222 4.59 26.306 4.47C26.39 4.35 26.432 4.29 26.432 4.29C26.18 4.482 25.91 4.542 25.622 4.47C25.334 4.386 25.076 4.242 24.848 4.038C24.632 3.822 24.494 3.618 24.434 3.426C24.458 3.342 24.542 3.312 24.686 3.336C24.842 3.348 24.968 3.378 25.064 3.426C25.088 3.318 25.22 3.252 25.46 3.228C25.712 3.204 25.94 3.192 26.144 3.192C26.264 3.192 26.342 3.192 26.378 3.192C26.75 3.168 27.11 3.15 27.458 3.138C27.806 3.126 28.208 3.102 28.664 3.066C28.676 3.018 28.688 2.934 28.7 2.814C28.724 2.682 28.73 2.544 28.718 2.4C28.43 2.196 28.214 2.004 28.07 1.824C27.938 1.644 27.716 1.446 27.404 1.23C27.44 1.134 27.512 1.08 27.62 1.068C27.728 1.044 27.848 1.038 27.98 1.05C28.184 0.87 28.424 0.791999 28.7 0.815999C28.976 0.84 29.24 0.918 29.492 1.05C29.756 1.182 29.954 1.344 30.086 1.536C30.002 1.764 29.93 1.986 29.87 2.202C29.81 2.418 29.732 2.688 29.636 3.012C29.876 3.024 30.11 3.024 30.338 3.012C30.566 3 30.788 2.988 31.004 2.976C31.256 2.952 31.502 2.94 31.742 2.94C31.982 2.928 32.216 2.934 32.444 2.958C32.744 2.994 33.026 3.078 33.29 3.21C33.554 3.33 33.8 3.528 34.028 3.804C33.872 3.936 33.71 4.02 33.542 4.056C33.374 4.092 33.2 4.104 33.02 4.092C32.792 4.068 32.552 4.038 32.3 4.002C32.06 3.954 31.802 3.93 31.526 3.93C31.634 4.11 31.796 4.206 32.012 4.218C32.228 4.218 32.408 4.26 32.552 4.344L32.48 4.47C32.828 4.59 33.104 4.782 33.308 5.046C33.524 5.31 33.764 5.544 34.028 5.748C34.028 5.784 34.028 5.82 34.028 5.856C34.04 5.892 34.052 5.928 34.064 5.964C34.076 6.012 34.082 6.066 34.082 6.126C34.094 6.174 34.094 6.234 34.082 6.306C34.034 6.426 33.962 6.492 33.866 6.504C33.77 6.516 33.674 6.552 33.578 6.612C33.218 6.48 32.894 6.312 32.606 6.108C32.318 5.904 32.048 5.688 31.796 5.46C31.532 5.22 31.274 4.974 31.022 4.722C30.77 4.458 30.5 4.212 30.212 3.984C29.984 3.96 29.75 3.954 29.51 3.966C29.27 3.966 29.024 3.978 28.772 4.002C28.628 4.002 28.478 4.008 28.322 4.02C28.178 4.032 28.028 4.038 27.872 4.038C27.932 4.134 27.974 4.248 27.998 4.38C28.034 4.512 28.01 4.626 27.926 4.722C28.082 4.842 28.184 5.004 28.232 5.208C28.292 5.4 28.322 5.604 28.322 5.82C28.43 5.784 28.592 5.766 28.808 5.766C29.036 5.766 29.258 5.76 29.474 5.748C29.69 5.736 29.84 5.7 29.924 5.64C29.924 5.592 29.924 5.544 29.924 5.496C29.924 5.436 29.93 5.376 29.942 5.316C29.966 5.184 29.972 5.052 29.96 4.92C29.96 4.776 29.888 4.686 29.744 4.65C29.756 4.614 29.756 4.566 29.744 4.506C29.744 4.458 29.744 4.41 29.744 4.362C29.756 4.314 29.798 4.272 29.87 4.236C30.026 4.308 30.176 4.386 30.32 4.47C30.464 4.554 30.632 4.614 30.824 4.65C30.8 4.698 30.8 4.746 30.824 4.794C30.86 4.83 30.896 4.872 30.932 4.92C30.992 4.992 31.052 5.076 31.112 5.172C31.172 5.268 31.19 5.4 31.166 5.568C31.37 5.58 31.586 5.658 31.814 5.802C32.054 5.946 32.24 6.114 32.372 6.306C32.312 6.426 32.21 6.498 32.066 6.522C31.934 6.546 31.796 6.564 31.652 6.576C31.592 6.576 31.532 6.582 31.472 6.594C31.412 6.594 31.352 6.6 31.292 6.612C31.184 6.72 31.142 6.9 31.166 7.152C31.406 7.296 31.658 7.434 31.922 7.566C32.186 7.686 32.414 7.836 32.606 8.016C32.498 8.184 32.348 8.28 32.156 8.304C31.976 8.328 31.772 8.334 31.544 8.322C31.472 8.322 31.4 8.322 31.328 8.322C31.256 8.322 31.184 8.322 31.112 8.322C31.124 8.622 31.106 8.886 31.058 9.114C31.13 9.15 31.256 9.15 31.436 9.114C31.628 9.078 31.748 9.018 31.796 8.934C32.18 9.018 32.534 9.132 32.858 9.276C33.194 9.42 33.488 9.612 33.74 9.852C33.596 10.044 33.422 10.152 33.218 10.176C33.026 10.188 32.81 10.188 32.57 10.176C32.522 10.176 32.468 10.176 32.408 10.176C32.36 10.164 32.312 10.158 32.264 10.158C32.336 10.302 32.45 10.404 32.606 10.464C32.762 10.524 32.858 10.644 32.894 10.824C32.738 11.016 32.534 11.166 32.282 11.274C32.042 11.382 31.796 11.49 31.544 11.598C31.304 11.694 31.088 11.826 30.896 11.994C31.016 12.15 31.16 12.282 31.328 12.39C31.496 12.498 31.676 12.588 31.868 12.66C31.856 12.696 31.82 12.714 31.76 12.714C31.7 12.714 31.646 12.732 31.598 12.768C31.646 12.84 31.706 12.87 31.778 12.858C31.85 12.846 31.916 12.798 31.976 12.714C32.108 12.918 32.282 13.068 32.498 13.164C32.714 13.26 32.936 13.356 33.164 13.452C33.248 13.668 33.38 13.83 33.56 13.938C33.752 14.034 33.944 14.136 34.136 14.244C34.136 14.328 34.16 14.406 34.208 14.478C34.256 14.55 34.304 14.616 34.352 14.676C34.412 14.748 34.46 14.814 34.496 14.874C34.532 14.934 34.544 15 34.532 15.072ZM27.116 6.918C26.804 6.906 26.552 6.828 26.36 6.684C26.168 6.54 25.964 6.414 25.748 6.306C25.712 6.342 25.676 6.378 25.64 6.414C25.616 6.45 25.592 6.486 25.568 6.522C25.412 6.726 25.238 6.912 25.046 7.08C24.866 7.248 24.662 7.296 24.434 7.224C24.446 7.176 24.446 7.134 24.434 7.098C24.422 7.062 24.41 7.026 24.398 6.99C24.374 6.93 24.356 6.864 24.344 6.792C24.332 6.72 24.344 6.618 24.38 6.486C24.224 6.498 24.056 6.522 23.876 6.558C23.696 6.594 23.522 6.654 23.354 6.738C23.342 7.086 23.396 7.362 23.516 7.566C23.648 7.758 23.792 7.938 23.948 8.106C24.14 8.286 24.32 8.484 24.488 8.7C24.668 8.904 24.764 9.204 24.776 9.6C24.62 9.708 24.476 9.75 24.344 9.726C24.224 9.69 24.104 9.63 23.984 9.546C23.852 9.438 23.72 9.312 23.588 9.168C23.468 9.024 23.33 8.928 23.174 8.88C23.174 9.012 23.174 9.144 23.174 9.276C23.174 9.396 23.174 9.51 23.174 9.618C23.174 10.122 23.174 10.572 23.174 10.968C23.186 11.364 23.204 11.778 23.228 12.21C23.252 12.63 23.294 13.128 23.354 13.704C23.486 13.668 23.624 13.572 23.768 13.416C23.924 13.26 24.08 13.092 24.236 12.912C24.404 12.72 24.56 12.552 24.704 12.408C24.848 12.264 24.968 12.204 25.064 12.228C25.04 12.276 25.004 12.318 24.956 12.354C24.92 12.378 24.902 12.42 24.902 12.48C24.95 12.492 24.992 12.48 25.028 12.444C25.076 12.408 25.118 12.366 25.154 12.318C25.178 12.282 25.202 12.252 25.226 12.228C25.262 12.192 25.304 12.174 25.352 12.174C25.364 12.09 25.358 12.054 25.334 12.066C25.31 12.066 25.28 12.078 25.244 12.102C25.16 12.162 25.118 12.162 25.118 12.102C25.142 11.994 25.19 11.91 25.262 11.85C25.334 11.79 25.412 11.736 25.496 11.688C25.592 11.628 25.676 11.568 25.748 11.508C25.82 11.436 25.838 11.334 25.802 11.202C25.934 11.154 26.048 11.046 26.144 10.878C26.24 10.698 26.282 10.56 26.27 10.464C25.946 10.548 25.622 10.536 25.298 10.428C24.974 10.32 24.704 10.17 24.488 9.978C24.812 9.69 25.136 9.516 25.46 9.456C25.784 9.396 26.138 9.354 26.522 9.33C26.606 9.33 26.69 9.33 26.774 9.33C26.87 9.318 26.966 9.306 27.062 9.294C27.05 9.234 27.044 9.18 27.044 9.132C27.056 9.084 27.062 9.042 27.062 9.006C27.062 8.958 27.062 8.916 27.062 8.88C27.074 8.844 27.074 8.802 27.062 8.754C26.726 8.67 26.432 8.544 26.18 8.376C25.94 8.208 25.742 7.986 25.586 7.71C25.73 7.65 25.874 7.62 26.018 7.62C26.162 7.608 26.306 7.602 26.45 7.602C26.546 7.614 26.642 7.62 26.738 7.62C26.846 7.62 26.954 7.608 27.062 7.584C27.05 7.5 27.044 7.428 27.044 7.368C27.056 7.308 27.068 7.248 27.08 7.188C27.092 7.152 27.098 7.11 27.098 7.062C27.11 7.014 27.116 6.966 27.116 6.918ZM29.87 12.912C29.558 12.528 29.276 12.108 29.024 11.652C28.784 11.196 28.472 10.818 28.088 10.518C28.052 10.65 27.986 10.752 27.89 10.824C27.806 10.896 27.722 10.98 27.638 11.076C27.662 11.388 27.668 11.748 27.656 12.156C27.644 12.552 27.626 12.954 27.602 13.362C27.578 13.758 27.548 14.112 27.512 14.424C27.584 14.412 27.722 14.346 27.926 14.226C28.142 14.106 28.274 13.968 28.322 13.812C28.466 13.776 28.586 13.716 28.682 13.632C28.79 13.536 28.898 13.44 29.006 13.344C29.126 13.224 29.252 13.122 29.384 13.038C29.516 12.942 29.678 12.9 29.87 12.912ZM31.292 10.392C31.172 10.224 31.016 10.134 30.824 10.122C30.644 10.098 30.44 10.098 30.212 10.122C29.984 10.146 29.732 10.17 29.456 10.194C29.192 10.206 28.964 10.212 28.772 10.212C28.976 10.416 29.18 10.62 29.384 10.824C29.588 11.028 29.804 11.214 30.032 11.382C30.308 11.274 30.554 11.118 30.77 10.914C30.998 10.71 31.172 10.536 31.292 10.392ZM29.978 9.186C29.966 9.102 29.96 9.024 29.96 8.952C29.972 8.88 29.984 8.814 29.996 8.754C30.008 8.67 30.014 8.598 30.014 8.538C30.014 8.466 30.002 8.394 29.978 8.322C29.642 8.322 29.318 8.346 29.006 8.394C28.694 8.43 28.43 8.466 28.214 8.502C28.166 8.598 28.142 8.688 28.142 8.772C28.142 8.844 28.142 8.916 28.142 8.988C28.154 9.048 28.16 9.102 28.16 9.15C28.16 9.198 28.154 9.246 28.142 9.294C28.238 9.294 28.328 9.294 28.412 9.294C28.496 9.294 28.574 9.294 28.646 9.294C28.886 9.282 29.108 9.276 29.312 9.276C29.516 9.264 29.738 9.234 29.978 9.186ZM30.086 7.404C30.074 7.332 30.062 7.266 30.05 7.206C30.05 7.146 30.05 7.086 30.05 7.026C30.062 6.954 30.062 6.888 30.05 6.828C30.038 6.756 30.014 6.684 29.978 6.612C29.678 6.612 29.36 6.63 29.024 6.666C28.688 6.702 28.418 6.726 28.214 6.738C28.202 6.81 28.202 6.876 28.214 6.936C28.226 6.996 28.232 7.05 28.232 7.098C28.244 7.17 28.25 7.242 28.25 7.314C28.262 7.386 28.25 7.458 28.214 7.53C28.55 7.506 28.868 7.482 29.168 7.458C29.468 7.434 29.774 7.416 30.086 7.404ZM27.008 5.442C26.864 5.466 26.738 5.514 26.63 5.586C26.522 5.658 26.456 5.778 26.432 5.946C26.6 5.97 26.768 5.94 26.936 5.856C27.116 5.772 27.14 5.634 27.008 5.442ZM24.002 13.326C23.99 13.338 23.948 13.38 23.876 13.452C23.792 13.524 23.702 13.614 23.606 13.722C23.522 13.818 23.516 13.89 23.588 13.938C23.6 13.914 23.624 13.884 23.66 13.848C23.696 13.812 23.732 13.77 23.768 13.722C23.852 13.65 23.924 13.578 23.984 13.506C24.044 13.422 24.05 13.362 24.002 13.326ZM51.614 14.046C51.35 14.106 51.14 14.166 50.984 14.226C50.828 14.274 50.648 14.346 50.444 14.442C50 14.322 49.58 14.226 49.184 14.154C48.8 14.07 48.458 13.89 48.158 13.614C48.134 13.59 48.122 13.548 48.122 13.488C48.134 13.428 48.128 13.386 48.104 13.362C48.08 13.338 48.038 13.332 47.978 13.344C47.918 13.344 47.876 13.332 47.852 13.308C47.468 12.888 47.078 12.432 46.682 11.94C46.298 11.448 45.92 10.962 45.548 10.482C45.176 9.99 44.81 9.546 44.45 9.15C44.39 9.666 44.372 10.17 44.396 10.662C44.432 11.142 44.474 11.622 44.522 12.102C44.546 12.378 44.57 12.66 44.594 12.948C44.618 13.236 44.63 13.518 44.63 13.794C44.63 14.178 44.606 14.562 44.558 14.946C44.51 15.33 44.408 15.714 44.252 16.098C44.18 16.23 44.066 16.29 43.91 16.278C43.766 16.266 43.652 16.296 43.568 16.368C43.1 15.948 42.65 15.564 42.218 15.216C41.786 14.88 41.324 14.538 40.832 14.19C40.856 14.13 40.862 14.088 40.85 14.064C40.838 14.04 40.82 14.016 40.796 13.992C40.736 13.932 40.73 13.872 40.778 13.812C41.234 13.836 41.618 13.896 41.93 13.992C42.242 14.076 42.59 14.124 42.974 14.136C43.046 14.124 43.088 14.082 43.1 14.01C43.184 13.398 43.226 12.756 43.226 12.084C43.226 11.4 43.22 10.704 43.208 9.996C43.208 9.9 43.202 9.804 43.19 9.708C43.19 9.612 43.19 9.516 43.19 9.42C42.71 9.876 42.23 10.338 41.75 10.806C41.27 11.274 40.724 11.682 40.112 12.03C40.028 12.186 39.92 12.3 39.788 12.372C39.668 12.444 39.554 12.51 39.446 12.57C39.35 12.618 39.284 12.708 39.248 12.84C39.152 12.828 39.062 12.858 38.978 12.93C38.906 12.99 38.828 13.068 38.744 13.164C38.72 13.164 38.714 13.146 38.726 13.11C38.75 13.074 38.738 13.05 38.69 13.038C38.39 13.266 38.072 13.524 37.736 13.812C37.412 14.088 37.058 14.232 36.674 14.244C36.554 14.244 36.434 14.232 36.314 14.208C36.206 14.172 36.086 14.112 35.954 14.028C35.978 13.944 36.02 13.872 36.08 13.812C36.152 13.74 36.188 13.704 36.188 13.704C36.14 13.716 36.098 13.71 36.062 13.686C36.026 13.662 36.008 13.65 36.008 13.65C37.088 12.954 38.162 12.108 39.23 11.112C40.31 10.116 41.33 9.126 42.29 8.142C42.062 8.142 41.738 8.154 41.318 8.178C40.898 8.19 40.472 8.226 40.04 8.286C39.608 8.346 39.254 8.46 38.978 8.628C38.654 8.412 38.372 8.154 38.132 7.854C37.904 7.542 37.634 7.272 37.322 7.044C37.346 6.96 37.412 6.918 37.52 6.918C37.628 6.918 37.736 6.918 37.844 6.918C37.964 6.906 38.042 6.864 38.078 6.792C38.75 6.984 39.524 7.062 40.4 7.026C41.276 6.99 42.17 6.924 43.082 6.828C43.022 6.108 42.974 5.388 42.938 4.668C42.914 3.936 42.86 3.252 42.776 2.616C42.704 1.98 42.566 1.44 42.362 0.995999C42.35 0.935999 42.362 0.887999 42.398 0.852C42.434 0.804 42.482 0.791999 42.542 0.815999C42.938 1.02 43.316 1.242 43.676 1.482C44.036 1.722 44.378 1.98 44.702 2.256C44.69 2.484 44.672 2.724 44.648 2.976C44.636 3.216 44.612 3.468 44.576 3.732C44.528 4.2 44.486 4.692 44.45 5.208C44.414 5.712 44.42 6.222 44.468 6.738C44.672 6.702 44.888 6.684 45.116 6.684C45.344 6.672 45.566 6.666 45.782 6.666C46.142 6.678 46.484 6.672 46.808 6.648C47.132 6.624 47.396 6.528 47.6 6.36C48.056 6.42 48.542 6.534 49.058 6.702C49.586 6.87 50 7.116 50.3 7.44C50.252 7.608 50.186 7.71 50.102 7.746C50.018 7.77 49.922 7.782 49.814 7.782C49.706 7.782 49.58 7.836 49.436 7.944C48.74 7.896 48.044 7.872 47.348 7.872C46.652 7.872 45.872 7.884 45.008 7.908C44.948 7.908 44.888 7.908 44.828 7.908C44.78 7.908 44.726 7.908 44.666 7.908C45.578 8.748 46.592 9.492 47.708 10.14C48.824 10.788 49.928 11.436 51.02 12.084C51.092 12.24 51.188 12.39 51.308 12.534C51.428 12.678 51.53 12.828 51.614 12.984C51.698 13.128 51.746 13.29 51.758 13.47C51.782 13.638 51.734 13.83 51.614 14.046ZM49.238 3.552C49.238 3.588 49.238 3.624 49.238 3.66C49.238 3.696 49.238 3.726 49.238 3.75C49.226 3.858 49.214 3.942 49.202 4.002C49.202 4.062 49.172 4.116 49.112 4.164C48.62 4.428 48.158 4.722 47.726 5.046C47.306 5.37 46.862 5.676 46.394 5.964C46.322 5.976 46.286 5.934 46.286 5.838C46.286 5.802 46.274 5.766 46.25 5.73C46.238 5.694 46.202 5.67 46.142 5.658C46.082 5.802 46.028 5.862 45.98 5.838C45.932 5.802 45.92 5.7 45.944 5.532C45.86 5.532 45.794 5.562 45.746 5.622C45.71 5.682 45.692 5.712 45.692 5.712C45.836 5.34 46.076 4.968 46.412 4.596C46.748 4.212 47.042 3.834 47.294 3.462C47.27 3.378 47.234 3.312 47.186 3.264C47.15 3.204 47.108 3.15 47.06 3.102C47 3.03 46.946 2.958 46.898 2.886C46.85 2.802 46.826 2.688 46.826 2.544C47.114 2.388 47.408 2.358 47.708 2.454C48.008 2.55 48.29 2.706 48.554 2.922C48.83 3.138 49.058 3.348 49.238 3.552ZM41.948 6.162C41.48 6.162 41.048 6.018 40.652 5.73C40.268 5.43 39.938 5.13 39.662 4.83C39.71 4.638 39.692 4.47 39.608 4.326C39.536 4.182 39.446 4.044 39.338 3.912C39.242 3.792 39.152 3.666 39.068 3.534C38.996 3.402 38.954 3.24 38.942 3.048C39.494 3.072 40.004 3.234 40.472 3.534C40.94 3.822 41.306 4.194 41.57 4.65C41.846 5.106 41.972 5.61 41.948 6.162ZM68.678 15.432C68.774 15.684 68.732 15.822 68.552 15.846C68.144 15.882 67.712 15.882 67.256 15.846C66.812 15.822 66.344 15.792 65.852 15.756C65.276 15.696 64.664 15.648 64.016 15.612C63.368 15.576 62.69 15.588 61.982 15.648C61.37 15.696 60.8 15.762 60.272 15.846C59.756 15.942 59.282 16.026 58.85 16.098C58.802 16.11 58.778 16.086 58.778 16.026C58.778 15.978 58.778 15.954 58.778 15.954C58.538 16.002 58.334 16.08 58.166 16.188C57.998 16.308 57.824 16.374 57.644 16.386C57.308 16.41 57.02 16.344 56.78 16.188C56.552 16.044 56.354 15.858 56.186 15.63C56.03 15.402 55.892 15.18 55.772 14.964C55.724 14.868 55.676 14.784 55.628 14.712C55.58 14.628 55.532 14.556 55.484 14.496C55.76 14.4 56.072 14.382 56.42 14.442C56.768 14.49 57.038 14.592 57.23 14.748C57.326 14.736 57.422 14.73 57.518 14.73C57.626 14.718 57.728 14.706 57.824 14.694C58.388 14.646 58.97 14.598 59.57 14.55C60.182 14.502 60.734 14.49 61.226 14.514C61.226 14.358 61.22 14.214 61.208 14.082C61.208 13.95 61.202 13.818 61.19 13.686C61.178 13.542 61.166 13.398 61.154 13.254C61.142 13.098 61.142 12.93 61.154 12.75C60.746 12.81 60.32 12.858 59.876 12.894C59.444 12.93 59.066 12.906 58.742 12.822C58.502 12.762 58.286 12.666 58.094 12.534C57.914 12.39 57.77 12.198 57.662 11.958C58.106 11.91 58.652 11.868 59.3 11.832C59.948 11.796 60.56 11.736 61.136 11.652C61.16 11.148 61.046 10.788 60.794 10.572C60.53 10.692 60.248 10.734 59.948 10.698C59.648 10.65 59.366 10.554 59.102 10.41C58.838 10.266 58.616 10.104 58.436 9.924C58.448 9.876 58.478 9.852 58.526 9.852C58.586 9.84 58.646 9.834 58.706 9.834C58.826 9.834 58.892 9.816 58.904 9.78C58.808 9.6 58.754 9.414 58.742 9.222C58.73 9.03 58.73 8.838 58.742 8.646C58.742 8.514 58.736 8.382 58.724 8.25C58.724 8.118 58.712 7.992 58.688 7.872C58.628 7.632 58.532 7.452 58.4 7.332C58.268 7.212 58.13 7.092 57.986 6.972C57.854 6.84 57.746 6.648 57.662 6.396C58.058 6.42 58.502 6.414 58.994 6.378C59.498 6.342 60.008 6.294 60.524 6.234C60.92 6.198 61.304 6.162 61.676 6.126C62.06 6.09 62.42 6.072 62.756 6.072C63.104 5.916 63.446 5.88 63.782 5.964C64.13 6.036 64.484 6.138 64.844 6.27C64.988 6.33 65.138 6.39 65.294 6.45C65.45 6.498 65.612 6.54 65.78 6.576C65.828 6.6 65.852 6.63 65.852 6.666C65.864 6.702 65.87 6.738 65.87 6.774C65.87 6.81 65.876 6.852 65.888 6.9C65.912 6.936 65.966 6.966 66.05 6.99C66.002 7.158 65.906 7.29 65.762 7.386C65.618 7.47 65.462 7.542 65.294 7.602C65.138 7.65 64.988 7.722 64.844 7.818C64.808 8.07 64.772 8.352 64.736 8.664C64.7 8.976 64.652 9.27 64.592 9.546C64.532 9.822 64.448 10.038 64.34 10.194C64.22 10.374 64.088 10.47 63.944 10.482C63.8 10.494 63.626 10.488 63.422 10.464C63.266 10.428 63.086 10.404 62.882 10.392C62.678 10.38 62.45 10.41 62.198 10.482C62.294 10.614 62.366 10.752 62.414 10.896C62.462 11.04 62.456 11.22 62.396 11.436C62.672 11.52 62.966 11.538 63.278 11.49C63.602 11.442 63.848 11.352 64.016 11.22C64.148 11.316 64.316 11.394 64.52 11.454C64.736 11.514 64.952 11.58 65.168 11.652C65.396 11.712 65.6 11.808 65.78 11.94C65.96 12.06 66.092 12.24 66.176 12.48C66.02 12.492 65.84 12.498 65.636 12.498C65.432 12.498 65.216 12.498 64.988 12.498C64.556 12.498 64.106 12.504 63.638 12.516C63.182 12.528 62.774 12.576 62.414 12.66C62.414 12.792 62.408 12.918 62.396 13.038C62.384 13.158 62.372 13.278 62.36 13.398C62.336 13.542 62.318 13.692 62.306 13.848C62.294 14.004 62.294 14.172 62.306 14.352C62.45 14.352 62.594 14.358 62.738 14.37C62.882 14.382 63.026 14.394 63.17 14.406C63.626 14.43 64.058 14.436 64.466 14.424C64.874 14.412 65.18 14.286 65.384 14.046C65.504 14.082 65.618 14.106 65.726 14.118C65.846 14.13 65.96 14.136 66.068 14.136C66.248 14.148 66.422 14.178 66.59 14.226C66.758 14.262 66.92 14.376 67.076 14.568C67.136 14.532 67.196 14.526 67.256 14.55C67.28 14.562 67.31 14.568 67.346 14.568C67.382 14.568 67.424 14.544 67.472 14.496C67.532 14.616 67.646 14.712 67.814 14.784C67.982 14.856 68.15 14.934 68.318 15.018C68.498 15.114 68.618 15.252 68.678 15.432ZM70.136 7.008C70.1 7.416 69.908 7.734 69.56 7.962C69.212 8.178 68.852 8.364 68.48 8.52C68.132 8.352 67.82 8.22 67.544 8.124C67.268 8.016 67.016 7.812 66.788 7.512C66.884 7.272 66.992 7.026 67.112 6.774C67.244 6.522 67.424 6.27 67.652 6.018C67.664 5.91 67.652 5.832 67.616 5.784C67.58 5.724 67.544 5.664 67.508 5.604C67.472 5.556 67.436 5.508 67.4 5.46C67.364 5.4 67.352 5.316 67.364 5.208C66.764 5.112 66.08 5.064 65.312 5.064C64.556 5.052 63.764 5.064 62.936 5.1C62.12 5.124 61.322 5.16 60.542 5.208C59.882 5.244 59.288 5.292 58.76 5.352C58.244 5.412 57.764 5.49 57.32 5.586C57.176 6.306 56.984 6.984 56.744 7.62C56.516 8.244 56.342 8.928 56.222 9.672C56.234 9.696 56.246 9.726 56.258 9.762C56.318 9.894 56.36 10.02 56.384 10.14C56.42 10.248 56.396 10.386 56.312 10.554C55.772 10.458 55.334 10.254 54.998 9.942C54.662 9.63 54.398 9.21 54.206 8.682C54.578 8.406 54.89 8.076 55.142 7.692C55.394 7.308 55.568 6.816 55.664 6.216C55.628 6.132 55.58 6.06 55.52 6C55.472 5.928 55.418 5.862 55.358 5.802C55.25 5.694 55.154 5.58 55.07 5.46C54.998 5.34 54.986 5.166 55.034 4.938C55.202 4.866 55.358 4.818 55.502 4.794C55.646 4.77 55.85 4.788 56.114 4.848C56.294 4.68 56.516 4.584 56.78 4.56C57.044 4.524 57.32 4.512 57.608 4.524C57.764 4.524 57.914 4.524 58.058 4.524C58.214 4.524 58.364 4.512 58.508 4.488C58.424 4.284 58.232 4.08 57.932 3.876C57.644 3.66 57.386 3.462 57.158 3.282C57.17 3.102 57.146 2.94 57.086 2.796C57.026 2.652 56.96 2.514 56.888 2.382C56.816 2.25 56.756 2.124 56.708 2.004C56.66 1.872 56.648 1.734 56.672 1.59C57.176 1.686 57.65 1.872 58.094 2.148C58.538 2.424 58.838 2.772 58.994 3.192C59.054 3.372 59.078 3.564 59.066 3.768C59.066 3.972 59.018 4.188 58.922 4.416C59.042 4.416 59.156 4.41 59.264 4.398C59.384 4.386 59.498 4.38 59.606 4.38C59.858 4.356 60.11 4.338 60.362 4.326C60.626 4.314 60.926 4.314 61.262 4.326C61.262 4.23 61.256 4.116 61.244 3.984C61.232 3.852 61.22 3.708 61.208 3.552C61.196 3.276 61.178 3 61.154 2.724C61.142 2.436 61.148 2.202 61.172 2.022C60.944 1.77 60.746 1.542 60.578 1.338C60.41 1.122 60.266 0.828 60.146 0.455999C60.446 0.311999 60.758 0.287999 61.082 0.383999C61.418 0.467999 61.73 0.617999 62.018 0.833999C62.306 1.038 62.534 1.242 62.702 1.446C62.69 1.95 62.63 2.412 62.522 2.832C62.414 3.24 62.348 3.69 62.324 4.182C62.408 4.194 62.51 4.2 62.63 4.2C62.762 4.2 62.9 4.2 63.044 4.2C63.164 4.2 63.284 4.2 63.404 4.2C63.524 4.2 63.638 4.206 63.746 4.218C64.022 3.894 64.244 3.522 64.412 3.102C64.58 2.682 64.796 2.304 65.06 1.968C65.048 1.896 65.018 1.836 64.97 1.788C64.934 1.728 64.898 1.674 64.862 1.626C64.79 1.542 64.73 1.458 64.682 1.374C64.646 1.29 64.652 1.194 64.7 1.086C65.192 1.122 65.642 1.212 66.05 1.356C66.458 1.5 66.794 1.788 67.058 2.22C66.794 2.484 66.488 2.808 66.14 3.192C65.804 3.564 65.426 3.858 65.006 4.074C65.006 4.074 65.09 4.074 65.258 4.074C65.426 4.062 65.618 4.056 65.834 4.056C66.05 4.044 66.23 4.038 66.374 4.038C66.95 4.026 67.478 4.056 67.958 4.128C68.45 4.2 68.918 4.392 69.362 4.704C69.362 4.92 69.302 5.058 69.182 5.118C69.23 5.19 69.278 5.268 69.326 5.352C69.386 5.424 69.446 5.496 69.506 5.568C69.674 5.784 69.824 6.012 69.956 6.252C70.1 6.48 70.16 6.732 70.136 7.008ZM63.188 8.844C63.128 8.724 63.098 8.592 63.098 8.448C63.11 8.292 63.128 8.13 63.152 7.962C63.176 7.818 63.188 7.674 63.188 7.53C63.2 7.374 63.194 7.224 63.17 7.08C62.522 7.056 61.922 7.062 61.37 7.098C60.818 7.122 60.278 7.2 59.75 7.332C59.846 7.692 59.912 8.082 59.948 8.502C59.984 8.922 60.02 9.318 60.056 9.69C60.308 9.606 60.608 9.546 60.956 9.51C61.304 9.474 61.646 9.456 61.982 9.456C62.318 9.444 62.588 9.444 62.792 9.456C62.924 9.42 62.99 9.342 62.99 9.222C62.99 9.09 63.056 8.964 63.188 8.844Z" fill="#202020"/>
</svg>
