<svg width="157" height="37" viewBox="0 0 157 37" fill="none" xmlns="http://www.w3.org/2000/svg">
<path d="M32.68 7.56C32.7867 7.77333 32.8133 7.97333 32.76 8.16C32.7067 8.34667 32.6267 8.52 32.52 8.68C32.4667 8.81333 32.4267 8.90667 32.4 8.96C31.7867 9.01333 31.28 9.13333 30.88 9.32C30.48 9.48 29.9867 9.66667 29.4 9.88C29.2133 11.24 28.9867 12.5867 28.72 13.92C28.48 15.2533 27.9733 16.3333 27.2 17.16C26.4533 17.1867 25.68 17.2267 24.88 17.28C24.1067 17.3067 23.32 17.3467 22.52 17.4C20.6 17.5067 18.68 17.6 16.76 17.68C14.8667 17.76 13.12 17.76 11.52 17.68C11.1733 18.1067 10.7867 18.3467 10.36 18.4C9.93333 18.4533 9.50667 18.4 9.08 18.24C8.57333 18.0267 8.10667 17.72 7.68 17.32C7.25333 16.8933 6.94667 16.52 6.76 16.2C6.57333 15.9067 6.48 15.5067 6.48 15C6.50667 14.4667 6.56 13.9067 6.64 13.32C6.66667 12.8133 6.69333 12.3067 6.72 11.8C6.74667 11.2933 6.70667 10.84 6.6 10.44C6.44 9.96 6.21333 9.6 5.92 9.36C5.62667 9.12 5.32 8.93333 5 8.8C4.68 8.66667 4.4 8.50667 4.16 8.32C3.92 8.13333 3.77333 7.84 3.72 7.44C5.10667 7.09333 6.49333 6.81333 7.88 6.6C9.26667 6.38667 10.7467 6.21333 12.32 6.08C12.16 5.25333 11.9333 4.56 11.64 4C11.3467 3.44 11.1067 2.76 10.92 1.96C11.6133 1.66666 12.32 1.68 13.04 2C13.7867 2.29333 14.3867 2.76 14.84 3.4C15.32 4.04 15.5067 4.74667 15.4 5.52C15.6133 5.68 15.9333 5.77333 16.36 5.8C16.7867 5.82667 17.2267 5.82667 17.68 5.8C18.16 5.74667 18.5467 5.69333 18.84 5.64C18.8933 4.70667 18.7867 3.93333 18.52 3.32C18.2533 2.68 17.9333 2.09333 17.56 1.56C17.8267 1.16 18.1467 0.933331 18.52 0.879999C18.8933 0.826664 19.2933 0.879998 19.72 1.04C20.3067 1.25333 20.8533 1.61333 21.36 2.12C21.8933 2.6 22.2667 3.05333 22.48 3.48C22.48 3.66667 22.4533 3.84 22.4 4C22.3467 4.13333 22.28 4.28 22.2 4.44C22.12 4.62667 22.0533 4.81333 22 5C21.9467 5.18667 21.96 5.4 22.04 5.64C22.1733 5.61333 22.3467 5.61333 22.56 5.64C22.8 5.66667 23.04 5.69333 23.28 5.72C23.92 5.77333 24.5733 5.8 25.24 5.8C25.9067 5.8 26.32 5.57333 26.48 5.12C27.1467 5.41333 27.8667 5.65333 28.64 5.84C29.4133 6.02667 30.16 6.24 30.88 6.48C31.6267 6.72 32.2267 7.08 32.68 7.56ZM35.72 33.84C35.24 34.2667 34.7067 34.48 34.12 34.48C33.56 34.5067 32.96 34.48 32.32 34.4H32.28C30.8133 34.2133 29.2267 34.08 27.52 34C25.8133 33.9467 24.0933 33.9067 22.36 33.88C20.6267 33.88 18.9733 33.8667 17.4 33.84C16.0667 33.8133 14.6533 33.88 13.16 34.04C11.6933 34.2267 10.2533 34.48 8.84 34.8C7.42667 35.1467 6.16 35.56 5.04 36.04C4.61333 35.6933 4.12 35.4 3.56 35.16C3 34.9467 2.48 34.6933 2 34.4C2.02667 34.1067 1.97333 33.8533 1.84 33.64C1.70667 33.4533 1.56 33.2933 1.4 33.16C1.26667 33 1.14667 32.84 1.04 32.68C0.933334 32.52 0.92 32.32 1 32.08C2.28 32.32 3.68 32.4 5.2 32.32C6.72 32.2133 8.18667 32.0933 9.6 31.96C9.86667 31.9333 10.1333 31.9067 10.4 31.88C10.6933 31.8533 10.9733 31.8267 11.24 31.8C11 30.9467 10.6 30.24 10.04 29.68C9.48 29.0933 8.96 28.48 8.48 27.84C8.61333 27.8133 8.73333 27.8133 8.84 27.84C8.94667 27.84 9.05333 27.8533 9.16 27.88C9.26667 27.9067 9.36 27.92 9.44 27.92C9.54667 27.92 9.66667 27.8933 9.8 27.84L9.64 27.56C9.96 26.92 10 26.28 9.76 25.64C9.54667 25 9.21333 24.44 8.76 23.96C8.30667 23.4533 7.92 23.1067 7.6 22.92C7.68 22.6533 7.81333 22.4933 8 22.44C8.18667 22.3867 8.37333 22.36 8.56 22.36C8.72 22.36 8.86667 22.3467 9 22.32C9.16 22.2933 9.28 22.2133 9.36 22.08C10.2133 22.1067 11.08 22.0933 11.96 22.04C12.84 21.9867 13.7467 21.9067 14.68 21.8C15.72 21.72 16.7867 21.64 17.88 21.56C19 21.48 20.1467 21.4667 21.32 21.52C21.5333 21.4933 21.68 21.4133 21.76 21.28C21.8667 21.1467 21.96 21 22.04 20.84C22.8133 20.9467 23.7067 21.1067 24.72 21.32C25.7333 21.5067 26.6 21.8267 27.32 22.28C27.6933 22.52 28 22.8 28.24 23.12C28.48 23.44 28.6133 23.8267 28.64 24.28C28.6667 24.6 28.5333 24.7333 28.24 24.68C27.7333 24.6 27.2933 24.6533 26.92 24.84C26.5733 25 26.2667 25.2267 26 25.52C25.7333 25.84 25.5067 26.2 25.32 26.6C25.1333 26.9733 24.9467 27.3333 24.76 27.68C24.84 27.8933 24.9733 28.0667 25.16 28.2C25.3733 28.3067 25.5733 28.4267 25.76 28.56C25.9467 28.6933 26.0533 28.9067 26.08 29.2C25.84 29.6267 25.52 30 25.12 30.32C24.7467 30.6133 24.44 30.9733 24.2 31.4C24.7867 31.4533 25.3867 31.4933 26 31.52C26.6133 31.52 27.2533 31.52 27.92 31.52C28.1333 31.52 28.2533 31.4267 28.28 31.24C28.3067 31.0267 28.3867 30.8933 28.52 30.84C29.3733 30.9733 30.2667 31.16 31.2 31.4C32.1333 31.6133 33 31.92 33.8 32.32C34.6267 32.6933 35.2667 33.2 35.72 33.84ZM29.4 19.88C28.2533 20.0933 26.8667 20.2667 25.24 20.4C23.64 20.5333 21.9467 20.64 20.16 20.72C18.3733 20.8 16.6133 20.88 14.88 20.96C13.1467 21.0133 11.5867 21.1067 10.2 21.24C10.0933 21.24 9.97333 21.2533 9.84 21.28C9.70667 21.3067 9.58667 21.3467 9.48 21.4C9.32 21.4267 9.16 21.4533 9 21.48C8.86667 21.5067 8.74667 21.52 8.64 21.52C7.97333 21.44 7.33333 21.1733 6.72 20.72C6.13333 20.2667 5.61333 19.9467 5.16 19.76C5.45333 19.5467 5.82667 19.4133 6.28 19.36C6.73333 19.28 7.17333 19.2267 7.6 19.2C9.17333 19.0933 10.9733 18.96 13 18.8C15.0267 18.6133 17.0267 18.48 19 18.4C19.32 18.4 19.64 18.3867 19.96 18.36C20.3067 18.3333 20.64 18.3067 20.96 18.28C22.1067 18.2267 23.2 18.2 24.24 18.2C25.28 18.1733 26.24 18.28 27.12 18.52C28 18.76 28.76 19.2133 29.4 19.88ZM21.88 23.44C20.1733 23.4933 18.4933 23.5467 16.84 23.6C15.2133 23.6533 13.6267 23.8267 12.08 24.12C12.2933 24.36 12.4 24.6667 12.4 25.04C12.4 25.3867 12.3733 25.72 12.32 26.04C12.32 26.28 12.3067 26.4933 12.28 26.68C12.28 26.8667 12.3067 27.0267 12.36 27.16C13.16 27.16 13.96 27.1333 14.76 27.08C15.56 27.0267 16.3333 26.9733 17.08 26.92C17.88 26.84 18.6267 26.7867 19.32 26.76C20.0133 26.7067 20.6267 26.6933 21.16 26.72C21.6133 26.4 21.88 25.9467 21.96 25.36C22.04 24.7733 22.0133 24.1333 21.88 23.44ZM25.64 7.84C25.2933 7.76 24.9067 7.72 24.48 7.72C24.0533 7.72 23.6133 7.72 23.16 7.72C22.9467 7.72 22.7333 7.72 22.52 7.72C22.3067 7.72 22.0933 7.72 21.88 7.72C21.9067 8.14666 21.8933 8.54666 21.84 8.92C21.7867 9.29333 21.7467 9.64 21.72 9.96C21.6933 10.0933 21.6667 10.2267 21.64 10.36C21.6133 10.4933 21.6 10.6133 21.6 10.72C22.16 10.9067 22.76 11.08 23.4 11.24C24.04 11.3733 24.4533 11.7067 24.64 12.24C24.24 12.4533 23.72 12.56 23.08 12.56C22.4667 12.56 21.92 12.6267 21.44 12.76C21.3333 13.1067 21.2667 13.44 21.24 13.76C21.2133 14.08 21.2 14.3733 21.2 14.64C21.2 14.7733 21.1867 14.9067 21.16 15.04C21.16 15.1467 21.16 15.2533 21.16 15.36C21.2667 15.36 21.4133 15.36 21.6 15.36C22.0533 15.3333 22.5467 15.32 23.08 15.32C23.64 15.32 24.2533 15.3867 24.92 15.52C24.9733 15.12 25.0267 14.7067 25.08 14.28C25.16 13.8533 25.2267 13.4267 25.28 13C25.44 12.04 25.5733 11.1067 25.68 10.2C25.7867 9.29333 25.7733 8.50667 25.64 7.84ZM21.76 29.04C21.5467 29.04 21.32 29.04 21.08 29.04C20.84 29.04 20.6 29.04 20.36 29.04C19 29.04 17.6267 29.0533 16.24 29.08C14.8533 29.08 13.7067 29.16 12.8 29.32C13.0133 29.7467 13.2933 30.1067 13.64 30.4C13.9867 30.6933 14.24 31.0667 14.4 31.52C14.7467 31.4133 15.1867 31.3733 15.72 31.4C16.28 31.4267 16.84 31.4667 17.4 31.52C17.9333 31.5733 18.44 31.6133 18.92 31.64C19.4 31.6667 19.76 31.6267 20 31.52C20.5333 31.28 20.92 30.8933 21.16 30.36C21.4267 29.8267 21.6267 29.3867 21.76 29.04ZM19.16 8.8C19.1067 8.66667 19.0533 8.49333 19 8.28C18.9467 8.04 18.8533 7.89333 18.72 7.84C18.1067 7.81333 17.52 7.82666 16.96 7.88C16.4267 7.93333 15.9067 8.01333 15.4 8.12C15.4 8.36 15.4 8.6 15.4 8.84C15.4 9.08 15.4 9.30667 15.4 9.52C15.4 9.73333 15.4 9.94666 15.4 10.16C15.4 10.3467 15.4 10.5333 15.4 10.72H18.72C18.7733 10.2133 18.8133 9.82667 18.84 9.56C18.8667 9.26667 18.9733 9.01333 19.16 8.8ZM12.68 11C12.6533 10.84 12.64 10.6933 12.64 10.56C12.64 10.4 12.64 10.24 12.64 10.08C12.64 9.78667 12.6267 9.49333 12.6 9.2C12.5733 8.88 12.4933 8.56 12.36 8.24C11.7733 8.37333 11.16 8.46667 10.52 8.52C9.90667 8.54667 9.37333 8.6 8.92 8.68C9 9.10667 9.09333 9.54667 9.2 10C9.30667 10.4267 9.36 10.8533 9.36 11.28C9.97333 11.28 10.5333 11.24 11.04 11.16C11.5733 11.08 12.12 11.0267 12.68 11ZM18.72 15.36C18.6933 15.1467 18.68 14.9467 18.68 14.76C18.68 14.5467 18.68 14.3467 18.68 14.16C18.7067 13.8933 18.7067 13.64 18.68 13.4C18.68 13.16 18.64 12.9067 18.56 12.64C18.1867 12.6933 17.7867 12.7333 17.36 12.76C16.96 12.76 16.5467 12.76 16.12 12.76C16.0133 12.76 15.9067 12.76 15.8 12.76C15.72 12.76 15.64 12.76 15.56 12.76C15.4267 13.24 15.3467 13.7333 15.32 14.24C15.2933 14.7467 15.2667 15.1733 15.24 15.52C16.0133 15.52 16.6933 15.52 17.28 15.52C17.8933 15.4933 18.3733 15.44 18.72 15.36ZM12.8 15.64C12.7733 15.48 12.76 15.32 12.76 15.16C12.7867 14.9733 12.8 14.7867 12.8 14.6C12.8267 14.3067 12.84 14.0267 12.84 13.76C12.84 13.4667 12.7867 13.2267 12.68 13.04C12.52 13.04 12.3467 13.04 12.16 13.04C11.9733 13.04 11.7733 13.04 11.56 13.04C11.1867 13.0667 10.8133 13.08 10.44 13.08C10.0933 13.08 9.77333 13.0267 9.48 12.92C9.45333 13.24 9.45333 13.5333 9.48 13.8C9.50667 14.0667 9.53333 14.32 9.56 14.56C9.61333 14.7733 9.64 15 9.64 15.24C9.66667 15.4533 9.66667 15.68 9.64 15.92C10.3067 15.8933 10.8533 15.8667 11.28 15.84C11.7067 15.8133 12.2133 15.7467 12.8 15.64ZM76.96 33.16C76.9067 33.5333 76.7067 33.8267 76.36 34.04C76.0133 34.2533 75.64 34.4267 75.24 34.56C74.84 34.72 74.4933 34.9067 74.2 35.12C73.9333 34.9333 73.6933 34.8533 73.48 34.88C73.2667 34.9333 73.12 34.84 73.04 34.6C72.6667 34.7333 72.32 34.7467 72 34.64C71.68 34.56 71.3733 34.4533 71.08 34.32C70.9467 34.2667 70.8133 34.2133 70.68 34.16C70.5467 34.1067 70.4133 34.0667 70.28 34.04C70.3067 33.96 70.3467 33.8933 70.4 33.84C70.48 33.7867 70.52 33.76 70.52 33.76C70.2267 33.7067 70.0133 33.56 69.88 33.32C69.7733 33.1067 69.56 32.9867 69.24 32.96C69.1067 32.2933 68.88 31.7467 68.56 31.32C68.24 30.8667 67.88 30.4667 67.48 30.12C67.24 30.1733 67.04 30.28 66.88 30.44C66.7467 30.5733 66.7333 30.7733 66.84 31.04C65.9333 31.6533 65.1067 32.28 64.36 32.92C63.64 33.5333 62.6933 34.1333 61.52 34.72C61.4667 34.7467 61.44 34.8267 61.44 34.96C61.44 35.12 61.3733 35.2667 61.24 35.4C60.28 35.4533 59.5333 35.24 59 34.76C58.4933 34.3067 58.04 33.76 57.64 33.12C57.4533 32.8267 57.28 32.5467 57.12 32.28C56.96 32.0133 56.7733 31.7467 56.56 31.48C57.1733 31.5067 57.6667 31.56 58.04 31.64C58.4133 31.72 58.76 31.8933 59.08 32.16C59.2667 31.52 59.36 30.96 59.36 30.48C59.3867 29.9733 59.3867 29.4533 59.36 28.92C59.36 28.6 59.3467 28.2667 59.32 27.92C59.32 27.5733 59.3333 27.1733 59.36 26.72C58.3733 27.3333 57.3733 28.1467 56.36 29.16C55.3733 30.1733 54.3333 31.0267 53.24 31.72C52.9733 31.6667 52.8 31.64 52.72 31.64C52.64 31.64 52.44 31.6267 52.12 31.6C52.12 32.1067 52.0267 32.6667 51.84 33.28C51.6533 33.92 51.4933 34.5333 51.36 35.12C50.7467 35.3333 50.16 35.3333 49.6 35.12C49.04 34.9067 48.4933 34.5733 47.96 34.12C47.4267 33.6667 46.92 33.1867 46.44 32.68C46.3067 32.5467 46.2133 32.4533 46.16 32.4C45.7067 31.9467 45.3067 31.3733 44.96 30.68C44.6133 29.9867 44.2933 29.3467 44 28.76C44 28.76 44.2 28.8667 44.6 29.08C45 29.2933 45.3733 29.48 45.72 29.64C46.2 29.88 46.6933 30.1067 47.2 30.32C47.7333 30.5067 48.2267 30.6133 48.68 30.64C49.08 29.8133 49.3067 28.9867 49.36 28.16C49.44 27.3333 49.4667 26.5067 49.44 25.68C49.44 25.4667 49.44 25.2533 49.44 25.04C49.44 24.8267 49.44 24.6133 49.44 24.4C49.4667 23.8133 49.4533 23.1467 49.4 22.4C49.3467 21.6267 49.28 20.76 49.2 19.8C48.72 20.44 48.16 21.0133 47.52 21.52C46.9067 22 46.3067 22.52 45.72 23.08C45.16 23.6133 44.7067 24.28 44.36 25.08C44.1733 25.2133 44.0267 25.28 43.92 25.28C43.84 25.2533 43.7333 25.28 43.6 25.36C43.6 25.3867 43.6133 25.44 43.64 25.52C43.6933 25.5733 43.72 25.64 43.72 25.72C43.72 25.7733 43.64 25.8267 43.48 25.88C43.1867 25.96 42.8533 26.2133 42.48 26.64C42.1067 27.04 41.8133 27.4667 41.6 27.92C41.52 27.8933 41.48 27.8 41.48 27.64C41.48 27.5333 41.48 27.4533 41.48 27.4C41.2933 27.64 41.0667 27.8667 40.8 28.08C40.5333 28.2667 40.2133 28.3867 39.84 28.44C39.6533 28.4667 39.36 28.3867 38.96 28.2C38.56 27.9867 38.3333 27.6267 38.28 27.12C40.2533 25.4133 42.1067 23.6 43.84 21.68C45.6 19.7333 47.1333 17.56 48.44 15.16C48.0133 15.1067 47.5867 15.1333 47.16 15.24C46.7333 15.32 46.3333 15.4267 45.96 15.56C45.64 15.64 45.3467 15.72 45.08 15.8C44.8133 15.8533 44.5733 15.8667 44.36 15.84C44.3333 15.8933 44.28 15.96 44.2 16.04C44.12 16.0933 44.0533 16.16 44 16.24C43.9733 16.2933 43.9733 16.3867 44 16.52C43.44 16.52 42.8933 16.48 42.36 16.4C42.3067 16.1867 42.1867 16.0133 42 15.88C41.84 15.7467 41.6667 15.6133 41.48 15.48C41.2667 15.32 41.0667 15.16 40.88 15C40.72 14.84 40.6667 14.6267 40.72 14.36C40.64 14.36 40.56 14.3333 40.48 14.28C40.4533 14.2267 40.4133 14.2 40.36 14.2C40.3067 14.1733 40.2133 14.1867 40.08 14.24C40.0533 14.1067 40.0133 14 39.96 13.92C39.9333 13.8133 39.9067 13.72 39.88 13.64C39.8267 13.5067 39.7733 13.3733 39.72 13.24C39.6933 13.08 39.72 12.8667 39.8 12.6C39.96 12.6 40.1067 12.5867 40.24 12.56C40.3733 12.5333 40.44 12.4533 40.44 12.32C41.0533 12.5867 41.6933 12.76 42.36 12.84C43.0267 12.92 43.7067 12.9467 44.4 12.92C45.2 12.8667 46.0133 12.76 46.84 12.6C47.6667 12.4133 48.4933 12.2267 49.32 12.04C49.4533 10.9733 49.4267 10.0667 49.24 9.32C49.08 8.54667 48.7733 7.82666 48.32 7.16C47.6533 7.58666 46.96 7.86667 46.24 8C45.52 8.13333 44.7733 8.30667 44 8.52C43.92 8.22667 43.68 8.05333 43.28 8C42.88 7.92 42.6133 7.90667 42.48 7.96C42.48 7.96 42.48 7.90666 42.48 7.8C42.48 7.69333 42.44 7.61333 42.36 7.56C42.4133 7.53333 42.4933 7.48 42.6 7.4C42.8667 7.18667 43.1733 6.97333 43.52 6.76C43.8933 6.54667 44.2667 6.49333 44.64 6.6C44.6933 6.57333 44.72 6.49333 44.72 6.36C44.6667 6.22667 44.68 6.13333 44.76 6.08C45.08 5.94667 45.5467 5.74667 46.16 5.48C46.7733 5.18666 47.4133 4.89333 48.08 4.6C48.7467 4.30667 49.3333 4.04 49.84 3.8C50.3467 3.53333 50.68 3.34667 50.84 3.24C50.8133 3.13333 50.7733 3.04 50.72 2.96C50.6667 2.88 50.6 2.8 50.52 2.72C50.4133 2.64 50.32 2.54666 50.24 2.44C50.1867 2.30666 50.1733 2.12 50.2 1.88C50.7867 1.77333 51.36 1.74666 51.92 1.8C52.48 1.85333 53.0133 1.92 53.52 2C53.7067 2.02666 53.88 2.05333 54.04 2.08C54.2 2.08 54.36 2.09333 54.52 2.12C54.6267 2.36 54.7867 2.54667 55 2.68C55.2133 2.78667 55.44 2.88 55.68 2.96C55.6533 3.12 55.6533 3.25333 55.68 3.36C55.7067 3.44 55.7333 3.53333 55.76 3.64C55.76 3.74667 55.7733 3.85333 55.8 3.96C55.8267 4.04 55.8267 4.16 55.8 4.32C55.4533 4.66667 54.9867 4.90666 54.4 5.04C53.84 5.14666 53.2533 5.25333 52.64 5.36C52.0267 5.44 51.4667 5.62667 50.96 5.92C51.5733 6.61333 52.0133 7.4 52.28 8.28C52.5467 9.16 52.5733 10.1467 52.36 11.24C52.9733 11.1867 53.6 11.2933 54.24 11.56C54.9067 11.8 55.4667 12.0933 55.92 12.44C56.3733 12.1467 56.7867 11.8133 57.16 11.44C57.5333 11.0667 57.88 10.6667 58.2 10.24C58.3333 10.08 58.4933 9.86666 58.68 9.6C58.8667 9.33333 58.96 9.2 58.96 9.2C58.4 9.62666 57.8 9.76 57.16 9.6C56.52 9.41333 55.9467 9.09333 55.44 8.64C54.96 8.16 54.6533 7.70667 54.52 7.28C54.5733 7.09333 54.76 7.02667 55.08 7.08C55.4267 7.10667 55.7067 7.17333 55.92 7.28C55.9733 7.04 56.2667 6.89333 56.8 6.84C57.36 6.78667 57.8667 6.76 58.32 6.76C58.5867 6.76 58.76 6.76 58.84 6.76C59.6667 6.70667 60.4667 6.66666 61.24 6.64C62.0133 6.61333 62.9067 6.56 63.92 6.48C63.9467 6.37333 63.9733 6.18666 64 5.92C64.0533 5.62667 64.0667 5.32 64.04 5C63.4 4.54667 62.92 4.12 62.6 3.72C62.3067 3.32 61.8133 2.88 61.12 2.4C61.2 2.18666 61.36 2.06666 61.6 2.04C61.84 1.98667 62.1067 1.97333 62.4 2C62.8533 1.6 63.3867 1.42667 64 1.48C64.6133 1.53333 65.2 1.70667 65.76 2C66.3467 2.29333 66.7867 2.65333 67.08 3.08C66.8933 3.58667 66.7333 4.08 66.6 4.56C66.4667 5.04 66.2933 5.64 66.08 6.36C66.6133 6.38667 67.1333 6.38667 67.64 6.36C68.1467 6.33333 68.64 6.30666 69.12 6.28C69.68 6.22667 70.2267 6.2 70.76 6.2C71.2933 6.17333 71.8133 6.18667 72.32 6.24C72.9867 6.32 73.6133 6.50667 74.2 6.8C74.7867 7.06667 75.3333 7.50667 75.84 8.12C75.4933 8.41333 75.1333 8.6 74.76 8.68C74.3867 8.76 74 8.78667 73.6 8.76C73.0933 8.70667 72.56 8.64 72 8.56C71.4667 8.45333 70.8933 8.4 70.28 8.4C70.52 8.8 70.88 9.01333 71.36 9.04C71.84 9.04 72.24 9.13333 72.56 9.32L72.4 9.6C73.1733 9.86666 73.7867 10.2933 74.24 10.88C74.72 11.4667 75.2533 11.9867 75.84 12.44C75.84 12.52 75.84 12.6 75.84 12.68C75.8667 12.76 75.8933 12.84 75.92 12.92C75.9467 13.0267 75.96 13.1467 75.96 13.28C75.9867 13.3867 75.9867 13.52 75.96 13.68C75.8533 13.9467 75.6933 14.0933 75.48 14.12C75.2667 14.1467 75.0533 14.2267 74.84 14.36C74.04 14.0667 73.32 13.6933 72.68 13.24C72.04 12.7867 71.44 12.3067 70.88 11.8C70.2933 11.2667 69.72 10.72 69.16 10.16C68.6 9.57333 68 9.02666 67.36 8.52C66.8533 8.46667 66.3333 8.45333 65.8 8.48C65.2667 8.48 64.72 8.50667 64.16 8.56C63.84 8.56 63.5067 8.57333 63.16 8.6C62.84 8.62667 62.5067 8.64 62.16 8.64C62.2933 8.85333 62.3867 9.10667 62.44 9.4C62.52 9.69333 62.4667 9.94666 62.28 10.16C62.6267 10.4267 62.8533 10.7867 62.96 11.24C63.0933 11.6667 63.16 12.12 63.16 12.6C63.4 12.52 63.76 12.48 64.24 12.48C64.7467 12.48 65.24 12.4667 65.72 12.44C66.2 12.4133 66.5333 12.3333 66.72 12.2C66.72 12.0933 66.72 11.9867 66.72 11.88C66.72 11.7467 66.7333 11.6133 66.76 11.48C66.8133 11.1867 66.8267 10.8933 66.8 10.6C66.8 10.28 66.64 10.08 66.32 10C66.3467 9.92 66.3467 9.81333 66.32 9.68C66.32 9.57333 66.32 9.46667 66.32 9.36C66.3467 9.25333 66.44 9.16 66.6 9.08C66.9467 9.24 67.28 9.41333 67.6 9.6C67.92 9.78667 68.2933 9.92 68.72 10C68.6667 10.1067 68.6667 10.2133 68.72 10.32C68.8 10.4 68.88 10.4933 68.96 10.6C69.0933 10.76 69.2267 10.9467 69.36 11.16C69.4933 11.3733 69.5333 11.6667 69.48 12.04C69.9333 12.0667 70.4133 12.24 70.92 12.56C71.4533 12.88 71.8667 13.2533 72.16 13.68C72.0267 13.9467 71.8 14.1067 71.48 14.16C71.1867 14.2133 70.88 14.2533 70.56 14.28C70.4267 14.28 70.2933 14.2933 70.16 14.32C70.0267 14.32 69.8933 14.3333 69.76 14.36C69.52 14.6 69.4267 15 69.48 15.56C70.0133 15.88 70.5733 16.1867 71.16 16.48C71.7467 16.7467 72.2533 17.08 72.68 17.48C72.44 17.8533 72.1067 18.0667 71.68 18.12C71.28 18.1733 70.8267 18.1867 70.32 18.16C70.16 18.16 70 18.16 69.84 18.16C69.68 18.16 69.52 18.16 69.36 18.16C69.3867 18.8267 69.3467 19.4133 69.24 19.92C69.4 20 69.68 20 70.08 19.92C70.5067 19.84 70.7733 19.7067 70.88 19.52C71.7333 19.7067 72.52 19.96 73.24 20.28C73.9867 20.6 74.64 21.0267 75.2 21.56C74.88 21.9867 74.4933 22.2267 74.04 22.28C73.6133 22.3067 73.1333 22.3067 72.6 22.28C72.4933 22.28 72.3733 22.28 72.24 22.28C72.1333 22.2533 72.0267 22.24 71.92 22.24C72.08 22.56 72.3333 22.7867 72.68 22.92C73.0267 23.0533 73.24 23.32 73.32 23.72C72.9733 24.1467 72.52 24.48 71.96 24.72C71.4267 24.96 70.88 25.2 70.32 25.44C69.7867 25.6533 69.3067 25.9467 68.88 26.32C69.1467 26.6667 69.4667 26.96 69.84 27.2C70.2133 27.44 70.6133 27.64 71.04 27.8C71.0133 27.88 70.9333 27.92 70.8 27.92C70.6667 27.92 70.5467 27.96 70.44 28.04C70.5467 28.2 70.68 28.2667 70.84 28.24C71 28.2133 71.1467 28.1067 71.28 27.92C71.5733 28.3733 71.96 28.7067 72.44 28.92C72.92 29.1333 73.4133 29.3467 73.92 29.56C74.1067 30.04 74.4 30.4 74.8 30.64C75.2267 30.8533 75.6533 31.08 76.08 31.32C76.08 31.5067 76.1333 31.68 76.24 31.84C76.3467 32 76.4533 32.1467 76.56 32.28C76.6933 32.44 76.8 32.5867 76.88 32.72C76.96 32.8533 76.9867 33 76.96 33.16ZM60.48 15.04C59.7867 15.0133 59.2267 14.84 58.8 14.52C58.3733 14.2 57.92 13.92 57.44 13.68C57.36 13.76 57.28 13.84 57.2 13.92C57.1467 14 57.0933 14.08 57.04 14.16C56.6933 14.6133 56.3067 15.0267 55.88 15.4C55.48 15.7733 55.0267 15.88 54.52 15.72C54.5467 15.6133 54.5467 15.52 54.52 15.44C54.4933 15.36 54.4667 15.28 54.44 15.2C54.3867 15.0667 54.3467 14.92 54.32 14.76C54.2933 14.6 54.32 14.3733 54.4 14.08C54.0533 14.1067 53.68 14.16 53.28 14.24C52.88 14.32 52.4933 14.4533 52.12 14.64C52.0933 15.4133 52.2133 16.0267 52.48 16.48C52.7733 16.9067 53.0933 17.3067 53.44 17.68C53.8667 18.08 54.2667 18.52 54.64 19C55.04 19.4533 55.2533 20.12 55.28 21C54.9333 21.24 54.6133 21.3333 54.32 21.28C54.0533 21.2 53.7867 21.0667 53.52 20.88C53.2267 20.64 52.9333 20.36 52.64 20.04C52.3733 19.72 52.0667 19.5067 51.72 19.4C51.72 19.6933 51.72 19.9867 51.72 20.28C51.72 20.5467 51.72 20.8 51.72 21.04C51.72 22.16 51.72 23.16 51.72 24.04C51.7467 24.92 51.7867 25.84 51.84 26.8C51.8933 27.7333 51.9867 28.84 52.12 30.12C52.4133 30.04 52.72 29.8267 53.04 29.48C53.3867 29.1333 53.7333 28.76 54.08 28.36C54.4533 27.9333 54.8 27.56 55.12 27.24C55.44 26.92 55.7067 26.7867 55.92 26.84C55.8667 26.9467 55.7867 27.04 55.68 27.12C55.6 27.1733 55.56 27.2667 55.56 27.4C55.6667 27.4267 55.76 27.4 55.84 27.32C55.9467 27.24 56.04 27.1467 56.12 27.04C56.1733 26.96 56.2267 26.8933 56.28 26.84C56.36 26.76 56.4533 26.72 56.56 26.72C56.5867 26.5333 56.5733 26.4533 56.52 26.48C56.4667 26.48 56.4 26.5067 56.32 26.56C56.1333 26.6933 56.04 26.6933 56.04 26.56C56.0933 26.32 56.2 26.1333 56.36 26C56.52 25.8667 56.6933 25.7467 56.88 25.64C57.0933 25.5067 57.28 25.3733 57.44 25.24C57.6 25.08 57.64 24.8533 57.56 24.56C57.8533 24.4533 58.1067 24.2133 58.32 23.84C58.5333 23.44 58.6267 23.1333 58.6 22.92C57.88 23.1067 57.16 23.08 56.44 22.84C55.72 22.6 55.12 22.2667 54.64 21.84C55.36 21.2 56.08 20.8133 56.8 20.68C57.52 20.5467 58.3067 20.4533 59.16 20.4C59.3467 20.4 59.5333 20.4 59.72 20.4C59.9333 20.3733 60.1467 20.3467 60.36 20.32C60.3333 20.1867 60.32 20.0667 60.32 19.96C60.3467 19.8533 60.36 19.76 60.36 19.68C60.36 19.5733 60.36 19.48 60.36 19.4C60.3867 19.32 60.3867 19.2267 60.36 19.12C59.6133 18.9333 58.96 18.6533 58.4 18.28C57.8667 17.9067 57.4267 17.4133 57.08 16.8C57.4 16.6667 57.72 16.6 58.04 16.6C58.36 16.5733 58.68 16.56 59 16.56C59.2133 16.5867 59.4267 16.6 59.64 16.6C59.88 16.6 60.12 16.5733 60.36 16.52C60.3333 16.3333 60.32 16.1733 60.32 16.04C60.3467 15.9067 60.3733 15.7733 60.4 15.64C60.4267 15.56 60.44 15.4667 60.44 15.36C60.4667 15.2533 60.48 15.1467 60.48 15.04ZM66.6 28.36C65.9067 27.5067 65.28 26.5733 64.72 25.56C64.1867 24.5467 63.4933 23.7067 62.64 23.04C62.56 23.3333 62.4133 23.56 62.2 23.72C62.0133 23.88 61.8267 24.0667 61.64 24.28C61.6933 24.9733 61.7067 25.7733 61.68 26.68C61.6533 27.56 61.6133 28.4533 61.56 29.36C61.5067 30.24 61.44 31.0267 61.36 31.72C61.52 31.6933 61.8267 31.5467 62.28 31.28C62.76 31.0133 63.0533 30.7067 63.16 30.36C63.48 30.28 63.7467 30.1467 63.96 29.96C64.2 29.7467 64.44 29.5333 64.68 29.32C64.9467 29.0533 65.2267 28.8267 65.52 28.64C65.8133 28.4267 66.1733 28.3333 66.6 28.36ZM69.76 22.76C69.4933 22.3867 69.1467 22.1867 68.72 22.16C68.32 22.1067 67.8667 22.1067 67.36 22.16C66.8533 22.2133 66.2933 22.2667 65.68 22.32C65.0933 22.3467 64.5867 22.36 64.16 22.36C64.6133 22.8133 65.0667 23.2667 65.52 23.72C65.9733 24.1733 66.4533 24.5867 66.96 24.96C67.5733 24.72 68.12 24.3733 68.6 23.92C69.1067 23.4667 69.4933 23.08 69.76 22.76ZM66.84 20.08C66.8133 19.8933 66.8 19.72 66.8 19.56C66.8267 19.4 66.8533 19.2533 66.88 19.12C66.9067 18.9333 66.92 18.7733 66.92 18.64C66.92 18.48 66.8933 18.32 66.84 18.16C66.0933 18.16 65.3733 18.2133 64.68 18.32C63.9867 18.4 63.4 18.48 62.92 18.56C62.8133 18.7733 62.76 18.9733 62.76 19.16C62.76 19.32 62.76 19.48 62.76 19.64C62.7867 19.7733 62.8 19.8933 62.8 20C62.8 20.1067 62.7867 20.2133 62.76 20.32C62.9733 20.32 63.1733 20.32 63.36 20.32C63.5467 20.32 63.72 20.32 63.88 20.32C64.4133 20.2933 64.9067 20.28 65.36 20.28C65.8133 20.2533 66.3067 20.1867 66.84 20.08ZM67.08 16.12C67.0533 15.96 67.0267 15.8133 67 15.68C67 15.5467 67 15.4133 67 15.28C67.0267 15.12 67.0267 14.9733 67 14.84C66.9733 14.68 66.92 14.52 66.84 14.36C66.1733 14.36 65.4667 14.4 64.72 14.48C63.9733 14.56 63.3733 14.6133 62.92 14.64C62.8933 14.8 62.8933 14.9467 62.92 15.08C62.9467 15.2133 62.96 15.3333 62.96 15.44C62.9867 15.6 63 15.76 63 15.92C63.0267 16.08 63 16.24 62.92 16.4C63.6667 16.3467 64.3733 16.2933 65.04 16.24C65.7067 16.1867 66.3867 16.1467 67.08 16.12ZM60.24 11.76C59.92 11.8133 59.64 11.92 59.4 12.08C59.16 12.24 59.0133 12.5067 58.96 12.88C59.3333 12.9333 59.7067 12.8667 60.08 12.68C60.48 12.4933 60.5333 12.1867 60.24 11.76ZM53.56 29.28C53.5333 29.3067 53.44 29.4 53.28 29.56C53.0933 29.72 52.8933 29.92 52.68 30.16C52.4933 30.3733 52.48 30.5333 52.64 30.64C52.6667 30.5867 52.72 30.52 52.8 30.44C52.88 30.36 52.96 30.2667 53.04 30.16C53.2267 30 53.3867 29.84 53.52 29.68C53.6533 29.4933 53.6667 29.36 53.56 29.28ZM114.92 30.88C114.333 31.0133 113.867 31.1467 113.52 31.28C113.173 31.3867 112.773 31.5467 112.32 31.76C111.333 31.4933 110.4 31.28 109.52 31.12C108.667 30.9333 107.907 30.5333 107.24 29.92C107.187 29.8667 107.16 29.7733 107.16 29.64C107.187 29.5067 107.173 29.4133 107.12 29.36C107.067 29.3067 106.973 29.2933 106.84 29.32C106.707 29.32 106.613 29.2933 106.56 29.24C105.707 28.3067 104.84 27.2933 103.96 26.2C103.107 25.1067 102.267 24.0267 101.44 22.96C100.613 21.8667 99.8 20.88 99 20C98.8667 21.1467 98.8267 22.2667 98.88 23.36C98.96 24.4267 99.0533 25.4933 99.16 26.56C99.2133 27.1733 99.2667 27.8 99.32 28.44C99.3733 29.08 99.4 29.7067 99.4 30.32C99.4 31.1733 99.3467 32.0267 99.24 32.88C99.1333 33.7333 98.9067 34.5867 98.56 35.44C98.4 35.7333 98.1467 35.8667 97.8 35.84C97.48 35.8133 97.2267 35.88 97.04 36.04C96 35.1067 95 34.2533 94.04 33.48C93.08 32.7333 92.0533 31.9733 90.96 31.2C91.0133 31.0667 91.0267 30.9733 91 30.92C90.9733 30.8667 90.9333 30.8133 90.88 30.76C90.7467 30.6267 90.7333 30.4933 90.84 30.36C91.8533 30.4133 92.7067 30.5467 93.4 30.76C94.0933 30.9467 94.8667 31.0533 95.72 31.08C95.88 31.0533 95.9733 30.96 96 30.8C96.1867 29.44 96.28 28.0133 96.28 26.52C96.28 25 96.2667 23.4533 96.24 21.88C96.24 21.6667 96.2267 21.4533 96.2 21.24C96.2 21.0267 96.2 20.8133 96.2 20.6C95.1333 21.6133 94.0667 22.64 93 23.68C91.9333 24.72 90.72 25.6267 89.36 26.4C89.1733 26.7467 88.9333 27 88.64 27.16C88.3733 27.32 88.12 27.4667 87.88 27.6C87.6667 27.7067 87.52 27.9067 87.44 28.2C87.2267 28.1733 87.0267 28.24 86.84 28.4C86.68 28.5333 86.5067 28.7067 86.32 28.92C86.2667 28.92 86.2533 28.88 86.28 28.8C86.3333 28.72 86.3067 28.6667 86.2 28.64C85.5333 29.1467 84.8267 29.72 84.08 30.36C83.36 30.9733 82.5733 31.2933 81.72 31.32C81.4533 31.32 81.1867 31.2933 80.92 31.24C80.68 31.16 80.4133 31.0267 80.12 30.84C80.1733 30.6533 80.2667 30.4933 80.4 30.36C80.56 30.2 80.64 30.12 80.64 30.12C80.5333 30.1467 80.44 30.1333 80.36 30.08C80.28 30.0267 80.24 30 80.24 30C82.64 28.4533 85.0267 26.5733 87.4 24.36C89.8 22.1467 92.0667 19.9467 94.2 17.76C93.6933 17.76 92.9733 17.7867 92.04 17.84C91.1067 17.8667 90.16 17.9467 89.2 18.08C88.24 18.2133 87.4533 18.4667 86.84 18.84C86.12 18.36 85.4933 17.7867 84.96 17.12C84.4533 16.4267 83.8533 15.8267 83.16 15.32C83.2133 15.1333 83.36 15.04 83.6 15.04C83.84 15.04 84.08 15.04 84.32 15.04C84.5867 15.0133 84.76 14.92 84.84 14.76C86.3333 15.1867 88.0533 15.36 90 15.28C91.9467 15.2 93.9333 15.0533 95.96 14.84C95.8267 13.24 95.72 11.64 95.64 10.04C95.5867 8.41333 95.4667 6.89333 95.28 5.48C95.12 4.06666 94.8133 2.86666 94.36 1.88C94.3333 1.74666 94.36 1.64 94.44 1.56C94.52 1.45333 94.6267 1.42667 94.76 1.48C95.64 1.93333 96.48 2.42667 97.28 2.96C98.08 3.49333 98.84 4.06667 99.56 4.68C99.5333 5.18667 99.4933 5.72 99.44 6.28C99.4133 6.81333 99.36 7.37333 99.28 7.96C99.1733 9 99.08 10.0933 99 11.24C98.92 12.36 98.9333 13.4933 99.04 14.64C99.4933 14.56 99.9733 14.52 100.48 14.52C100.987 14.4933 101.48 14.48 101.96 14.48C102.76 14.5067 103.52 14.4933 104.24 14.44C104.96 14.3867 105.547 14.1733 106 13.8C107.013 13.9333 108.093 14.1867 109.24 14.56C110.413 14.9333 111.333 15.48 112 16.2C111.893 16.5733 111.747 16.8 111.56 16.88C111.373 16.9333 111.16 16.96 110.92 16.96C110.68 16.96 110.4 17.08 110.08 17.32C108.533 17.2133 106.987 17.16 105.44 17.16C103.893 17.16 102.16 17.1867 100.24 17.24C100.107 17.24 99.9733 17.24 99.84 17.24C99.7333 17.24 99.6133 17.24 99.48 17.24C101.507 19.1067 103.76 20.76 106.24 22.2C108.72 23.64 111.173 25.08 113.6 26.52C113.76 26.8667 113.973 27.2 114.24 27.52C114.507 27.84 114.733 28.1733 114.92 28.52C115.107 28.84 115.213 29.2 115.24 29.6C115.293 29.9733 115.187 30.4 114.92 30.88ZM109.64 7.56C109.64 7.64 109.64 7.72 109.64 7.8C109.64 7.88 109.64 7.94667 109.64 8C109.613 8.24 109.587 8.42667 109.56 8.56C109.56 8.69333 109.493 8.81333 109.36 8.92C108.267 9.50666 107.24 10.16 106.28 10.88C105.347 11.6 104.36 12.28 103.32 12.92C103.16 12.9467 103.08 12.8533 103.08 12.64C103.08 12.56 103.053 12.48 103 12.4C102.973 12.32 102.893 12.2667 102.76 12.24C102.627 12.56 102.507 12.6933 102.4 12.64C102.293 12.56 102.267 12.3333 102.32 11.96C102.133 11.96 101.987 12.0267 101.88 12.16C101.8 12.2933 101.76 12.36 101.76 12.36C102.08 11.5333 102.613 10.7067 103.36 9.88C104.107 9.02667 104.76 8.18667 105.32 7.36C105.267 7.17333 105.187 7.02667 105.08 6.92C105 6.78667 104.907 6.66667 104.8 6.56C104.667 6.4 104.547 6.24 104.44 6.08C104.333 5.89333 104.28 5.64 104.28 5.32C104.92 4.97333 105.573 4.90667 106.24 5.12C106.907 5.33333 107.533 5.68 108.12 6.16C108.733 6.64 109.24 7.10666 109.64 7.56ZM93.44 13.36C92.4 13.36 91.44 13.04 90.56 12.4C89.7067 11.7333 88.9733 11.0667 88.36 10.4C88.4667 9.97333 88.4267 9.6 88.24 9.28C88.08 8.96 87.88 8.65333 87.64 8.36C87.4267 8.09333 87.2267 7.81333 87.04 7.52C86.88 7.22667 86.7867 6.86667 86.76 6.44C87.9867 6.49333 89.12 6.85333 90.16 7.52C91.2 8.16 92.0133 8.98667 92.6 10C93.2133 11.0133 93.4933 12.1333 93.44 13.36ZM152.84 33.96C153.053 34.52 152.96 34.8267 152.56 34.88C151.653 34.96 150.693 34.96 149.68 34.88C148.693 34.8267 147.653 34.76 146.56 34.68C145.28 34.5467 143.92 34.44 142.48 34.36C141.04 34.28 139.533 34.3067 137.96 34.44C136.6 34.5467 135.333 34.6933 134.16 34.88C133.013 35.0933 131.96 35.28 131 35.44C130.893 35.4667 130.84 35.4133 130.84 35.28C130.84 35.1733 130.84 35.12 130.84 35.12C130.307 35.2267 129.853 35.4 129.48 35.64C129.107 35.9067 128.72 36.0533 128.32 36.08C127.573 36.1333 126.933 35.9867 126.4 35.64C125.893 35.32 125.453 34.9067 125.08 34.4C124.733 33.8933 124.427 33.4 124.16 32.92C124.053 32.7067 123.947 32.52 123.84 32.36C123.733 32.1733 123.627 32.0133 123.52 31.88C124.133 31.6667 124.827 31.6267 125.6 31.76C126.373 31.8667 126.973 32.0933 127.4 32.44C127.613 32.4133 127.827 32.4 128.04 32.4C128.28 32.3733 128.507 32.3467 128.72 32.32C129.973 32.2133 131.267 32.1067 132.6 32C133.96 31.8933 135.187 31.8667 136.28 31.92C136.28 31.5733 136.267 31.2533 136.24 30.96C136.24 30.6667 136.227 30.3733 136.2 30.08C136.173 29.76 136.147 29.44 136.12 29.12C136.093 28.7733 136.093 28.4 136.12 28C135.213 28.1333 134.267 28.24 133.28 28.32C132.32 28.4 131.48 28.3467 130.76 28.16C130.227 28.0267 129.747 27.8133 129.32 27.52C128.92 27.2 128.6 26.7733 128.36 26.24C129.347 26.1333 130.56 26.04 132 25.96C133.44 25.88 134.8 25.7467 136.08 25.56C136.133 24.44 135.88 23.64 135.32 23.16C134.733 23.4267 134.107 23.52 133.44 23.44C132.773 23.3333 132.147 23.12 131.56 22.8C130.973 22.48 130.48 22.12 130.08 21.72C130.107 21.6133 130.173 21.56 130.28 21.56C130.413 21.5333 130.547 21.52 130.68 21.52C130.947 21.52 131.093 21.48 131.12 21.4C130.907 21 130.787 20.5867 130.76 20.16C130.733 19.7333 130.733 19.3067 130.76 18.88C130.76 18.5867 130.747 18.2933 130.72 18C130.72 17.7067 130.693 17.4267 130.64 17.16C130.507 16.6267 130.293 16.2267 130 15.96C129.707 15.6933 129.4 15.4267 129.08 15.16C128.787 14.8667 128.547 14.44 128.36 13.88C129.24 13.9333 130.227 13.92 131.32 13.84C132.44 13.76 133.573 13.6533 134.72 13.52C135.6 13.44 136.453 13.36 137.28 13.28C138.133 13.2 138.933 13.16 139.68 13.16C140.453 12.8133 141.213 12.7333 141.96 12.92C142.733 13.08 143.52 13.3067 144.32 13.6C144.64 13.7333 144.973 13.8667 145.32 14C145.667 14.1067 146.027 14.2 146.4 14.28C146.507 14.3333 146.56 14.4 146.56 14.48C146.587 14.56 146.6 14.64 146.6 14.72C146.6 14.8 146.613 14.8933 146.64 15C146.693 15.08 146.813 15.1467 147 15.2C146.893 15.5733 146.68 15.8667 146.36 16.08C146.04 16.2667 145.693 16.4267 145.32 16.56C144.973 16.6667 144.64 16.8267 144.32 17.04C144.24 17.6 144.16 18.2267 144.08 18.92C144 19.6133 143.893 20.2667 143.76 20.88C143.627 21.4933 143.44 21.9733 143.2 22.32C142.933 22.72 142.64 22.9333 142.32 22.96C142 22.9867 141.613 22.9733 141.16 22.92C140.813 22.84 140.413 22.7867 139.96 22.76C139.507 22.7333 139 22.8 138.44 22.96C138.653 23.2533 138.813 23.56 138.92 23.88C139.027 24.2 139.013 24.6 138.88 25.08C139.493 25.2667 140.147 25.3067 140.84 25.2C141.56 25.0933 142.107 24.8933 142.48 24.6C142.773 24.8133 143.147 24.9867 143.6 25.12C144.08 25.2533 144.56 25.4 145.04 25.56C145.547 25.6933 146 25.9067 146.4 26.2C146.8 26.4667 147.093 26.8667 147.28 27.4C146.933 27.4267 146.533 27.44 146.08 27.44C145.627 27.44 145.147 27.44 144.64 27.44C143.68 27.44 142.68 27.4533 141.64 27.48C140.627 27.5067 139.72 27.6133 138.92 27.8C138.92 28.0933 138.907 28.3733 138.88 28.64C138.853 28.9067 138.827 29.1733 138.8 29.44C138.747 29.76 138.707 30.0933 138.68 30.44C138.653 30.7867 138.653 31.16 138.68 31.56C139 31.56 139.32 31.5733 139.64 31.6C139.96 31.6267 140.28 31.6533 140.6 31.68C141.613 31.7333 142.573 31.7467 143.48 31.72C144.387 31.6933 145.067 31.4133 145.52 30.88C145.787 30.96 146.04 31.0133 146.28 31.04C146.547 31.0667 146.8 31.08 147.04 31.08C147.44 31.1067 147.827 31.1733 148.2 31.28C148.573 31.36 148.933 31.6133 149.28 32.04C149.413 31.96 149.547 31.9467 149.68 32C149.733 32.0267 149.8 32.04 149.88 32.04C149.96 32.04 150.053 31.9867 150.16 31.88C150.293 32.1467 150.547 32.36 150.92 32.52C151.293 32.68 151.667 32.8533 152.04 33.04C152.44 33.2533 152.707 33.56 152.84 33.96ZM156.08 15.24C156 16.1467 155.573 16.8533 154.8 17.36C154.027 17.84 153.227 18.2533 152.4 18.6C151.627 18.2267 150.933 17.9333 150.32 17.72C149.707 17.48 149.147 17.0267 148.64 16.36C148.853 15.8267 149.093 15.28 149.36 14.72C149.653 14.16 150.053 13.6 150.56 13.04C150.587 12.8 150.56 12.6267 150.48 12.52C150.4 12.3867 150.32 12.2533 150.24 12.12C150.16 12.0133 150.08 11.9067 150 11.8C149.92 11.6667 149.893 11.48 149.92 11.24C148.587 11.0267 147.067 10.92 145.36 10.92C143.68 10.8933 141.92 10.92 140.08 11C138.267 11.0533 136.493 11.1333 134.76 11.24C133.293 11.32 131.973 11.4267 130.8 11.56C129.653 11.6933 128.587 11.8667 127.6 12.08C127.28 13.68 126.853 15.1867 126.32 16.6C125.813 17.9867 125.427 19.5067 125.16 21.16C125.187 21.2133 125.213 21.28 125.24 21.36C125.373 21.6533 125.467 21.9333 125.52 22.2C125.6 22.44 125.547 22.7467 125.36 23.12C124.16 22.9067 123.187 22.4533 122.44 21.76C121.693 21.0667 121.107 20.1333 120.68 18.96C121.507 18.3467 122.2 17.6133 122.76 16.76C123.32 15.9067 123.707 14.8133 123.92 13.48C123.84 13.2933 123.733 13.1333 123.6 13C123.493 12.84 123.373 12.6933 123.24 12.56C123 12.32 122.787 12.0667 122.6 11.8C122.44 11.5333 122.413 11.1467 122.52 10.64C122.893 10.48 123.24 10.3733 123.56 10.32C123.88 10.2667 124.333 10.3067 124.92 10.44C125.32 10.0667 125.813 9.85333 126.4 9.8C126.987 9.72 127.6 9.69333 128.24 9.72C128.587 9.72 128.92 9.72 129.24 9.72C129.587 9.72 129.92 9.69333 130.24 9.64C130.053 9.18667 129.627 8.73333 128.96 8.28C128.32 7.8 127.747 7.36 127.24 6.96C127.267 6.56 127.213 6.2 127.08 5.88C126.947 5.56 126.8 5.25333 126.64 4.96C126.48 4.66667 126.347 4.38667 126.24 4.12C126.133 3.82666 126.107 3.52 126.16 3.2C127.28 3.41333 128.333 3.82666 129.32 4.44C130.307 5.05333 130.973 5.82667 131.32 6.76C131.453 7.16 131.507 7.58667 131.48 8.04C131.48 8.49333 131.373 8.97333 131.16 9.48C131.427 9.48 131.68 9.46667 131.92 9.44C132.187 9.41333 132.44 9.4 132.68 9.4C133.24 9.34667 133.8 9.30667 134.36 9.28C134.947 9.25333 135.613 9.25333 136.36 9.28C136.36 9.06667 136.347 8.81333 136.32 8.52C136.293 8.22667 136.267 7.90667 136.24 7.56C136.213 6.94667 136.173 6.33333 136.12 5.72C136.093 5.08 136.107 4.56 136.16 4.16C135.653 3.6 135.213 3.09333 134.84 2.64C134.467 2.16 134.147 1.50667 133.88 0.679999C134.547 0.359998 135.24 0.306665 135.96 0.519999C136.707 0.706664 137.4 1.04 138.04 1.52C138.68 1.97333 139.187 2.42667 139.56 2.88C139.533 4 139.4 5.02667 139.16 5.96C138.92 6.86667 138.773 7.86667 138.72 8.96C138.907 8.98667 139.133 9 139.4 9C139.693 9 140 9 140.32 9C140.587 9 140.853 9 141.12 9C141.387 9 141.64 9.01333 141.88 9.04C142.493 8.32 142.987 7.49333 143.36 6.56C143.733 5.62667 144.213 4.78667 144.8 4.04C144.773 3.88 144.707 3.74667 144.6 3.64C144.52 3.50667 144.44 3.38667 144.36 3.28C144.2 3.09333 144.067 2.90666 143.96 2.72C143.88 2.53333 143.893 2.32 144 2.08C145.093 2.16 146.093 2.36 147 2.68C147.907 3 148.653 3.64 149.24 4.6C148.653 5.18667 147.973 5.90667 147.2 6.76C146.453 7.58667 145.613 8.24 144.68 8.72C144.68 8.72 144.867 8.72 145.24 8.72C145.613 8.69333 146.04 8.68 146.52 8.68C147 8.65333 147.4 8.64 147.72 8.64C149 8.61333 150.173 8.68 151.24 8.84C152.333 9 153.373 9.42666 154.36 10.12C154.36 10.6 154.227 10.9067 153.96 11.04C154.067 11.2 154.173 11.3733 154.28 11.56C154.413 11.72 154.547 11.88 154.68 12.04C155.053 12.52 155.387 13.0267 155.68 13.56C156 14.0667 156.133 14.6267 156.08 15.24ZM140.64 19.32C140.507 19.0533 140.44 18.76 140.44 18.44C140.467 18.0933 140.507 17.7333 140.56 17.36C140.613 17.04 140.64 16.72 140.64 16.4C140.667 16.0533 140.653 15.72 140.6 15.4C139.16 15.3467 137.827 15.36 136.6 15.44C135.373 15.4933 134.173 15.6667 133 15.96C133.213 16.76 133.36 17.6267 133.44 18.56C133.52 19.4933 133.6 20.3733 133.68 21.2C134.24 21.0133 134.907 20.88 135.68 20.8C136.453 20.72 137.213 20.68 137.96 20.68C138.707 20.6533 139.307 20.6533 139.76 20.68C140.053 20.6 140.2 20.4267 140.2 20.16C140.2 19.8667 140.347 19.5867 140.64 19.32Z" fill="#202020"/>
</svg>
